RubikHebrew-Bold.ufo
<glyph name="zero" format="1">
  <advance width="684"/>
  <unicode hex="0030"/>
  <outline>
    <contour>
      <point x="536" y="-9"/>
      <point x="622" y="106"/>
      <point x="631" y="253" type="curve" smooth="yes"/>
      <point x="634" y="307"/>
      <point x="634" y="393"/>
      <point x="631" y="450" type="curve" smooth="yes"/>
      <point x="623" y="596"/>
      <point x="529" y="709"/>
      <point x="341" y="710" type="curve"/>
      <point x="154" y="709"/>
      <point x="60" y="596"/>
      <point x="52" y="450" type="curve" smooth="yes"/>
      <point x="49" y="393"/>
      <point x="49" y="307"/>
      <point x="52" y="253" type="curve" smooth="yes"/>
      <point x="61" y="106"/>
      <point x="147" y="-9"/>
      <point x="341" y="-10" type="curve"/>
    </contour>
    <contour>
      <point x="277" y="141"/>
      <point x="249" y="187"/>
      <point x="246" y="258" type="curve" smooth="yes"/>
      <point x="244" y="315"/>
      <point x="244" y="389"/>
      <point x="246" y="444" type="curve" smooth="yes"/>
      <point x="249" y="512"/>
      <point x="275" y="561"/>
      <point x="341" y="561" type="curve"/>
      <point x="407" y="561"/>
      <point x="434" y="512"/>
      <point x="436" y="444" type="curve" smooth="yes"/>
      <point x="439" y="389"/>
      <point x="439" y="315"/>
      <point x="436" y="258" type="curve" smooth="yes"/>
      <point x="434" y="187"/>
      <point x="406" y="141"/>
      <point x="341" y="141" type="curve" smooth="yes"/>
    </contour>
  </outline>
</glyph>
<glyph name="one" format="1">
  <advance width="504"/>
  <unicode hex="0031"/>
  <outline>
    <contour>
      <point x="414" y="0" type="line" smooth="yes"/>
      <point x="428" y="0"/>
      <point x="439" y="11"/>
      <point x="439" y="25" type="curve" smooth="yes"/>
      <point x="439" y="675" type="line" smooth="yes"/>
      <point x="439" y="689"/>
      <point x="428" y="700"/>
      <point x="414" y="700" type="curve" smooth="yes"/>
      <point x="282" y="700" type="line" smooth="yes"/>
      <point x="273" y="700"/>
      <point x="266" y="698"/>
      <point x="258" y="693" type="curve" smooth="yes"/>
      <point x="27" y="514" type="line"/>
      <point x="14" y="506"/>
      <point x="12" y="489"/>
      <point x="19" y="477" type="curve"/>
      <point x="82" y="397" type="line" smooth="yes"/>
      <point x="91" y="384"/>
      <point x="105" y="381"/>
      <point x="117" y="390" type="curve" smooth="yes"/>
      <point x="252" y="493" type="line"/>
      <point x="252" y="25" type="line" smooth="yes"/>
      <point x="252" y="11"/>
      <point x="263" y="0"/>
      <point x="277" y="0" type="curve" smooth="yes"/>
    </contour>
  </outline>
</glyph>
<glyph name="less" format="1">
  <advance width="519"/>
  <unicode hex="003C"/>
  <outline>
    <contour>
      <point x="451" y="37"/>
      <point x="460" y="46"/>
      <point x="460" y="58" type="curve" smooth="yes"/>
      <point x="460" y="172" type="line" smooth="yes"/>
      <point x="460" y="193"/>
      <point x="445" y="202"/>
      <point x="432" y="211" type="curve" smooth="yes"/>
      <point x="219" y="351" type="line"/>
      <point x="432" y="490" type="line" smooth="yes"/>
      <point x="445" y="498"/>
      <point x="460" y="508"/>
      <point x="460" y="530" type="curve" smooth="yes"/>
      <point x="460" y="643" type="line" smooth="yes"/>
      <point x="460" y="656"/>
      <point x="451" y="664"/>
      <point x="439" y="664" type="curve" smooth="yes"/>
      <point x="435" y="664"/>
      <point x="428" y="661"/>
      <point x="423" y="658" type="curve" smooth="yes"/>
      <point x="58" y="410" type="line" smooth="yes"/>
      <point x="39" y="397"/>
      <point x="29" y="387"/>
      <point x="29" y="367" type="curve" smooth="yes"/>
      <point x="29" y="335" type="line" smooth="yes"/>
      <point x="29" y="315"/>
      <point x="39" y="304"/>
      <point x="58" y="291" type="curve" smooth="yes"/>
      <point x="423" y="43" type="line" smooth="yes"/>
      <point x="428" y="40"/>
      <point x="435" y="37"/>
      <point x="439" y="37" type="curve" smooth="yes"/>
    </contour>
  </outline>
</glyph>
<glyph name="equal" format="1">
  <advance width="566"/>
  <unicode hex="003D"/>
  <outline>
    <contour>
      <point x="480" y="359" type="line" smooth="yes"/>
      <point x="495" y="359"/>
      <point x="506" y="370"/>
      <point x="506" y="384" type="curve" smooth="yes"/>
      <point x="506" y="466" type="line" smooth="yes"/>
      <point x="506" y="480"/>
      <point x="495" y="491"/>
      <point x="480" y="491" type="curve" smooth="yes"/>
      <point x="85" y="491" type="line" smooth="yes"/>
      <point x="71" y="491"/>
      <point x="60" y="480"/>
      <point x="60" y="466" type="curve" smooth="yes"/>
      <point x="60" y="384" type="line" smooth="yes"/>
      <point x="60" y="370"/>
      <point x="71" y="359"/>
      <point x="85" y="359" type="curve" smooth="yes"/>
    </contour>
    <contour>
      <point x="480" y="109" type="line" smooth="yes"/>
      <point x="495" y="109"/>
      <point x="506" y="120"/>
      <point x="506" y="134" type="curve" smooth="yes"/>
      <point x="506" y="216" type="line" smooth="yes"/>
      <point x="506" y="230"/>
      <point x="495" y="241"/>
      <point x="480" y="241" type="curve" smooth="yes"/>
      <point x="85" y="241" type="line" smooth="yes"/>
      <point x="71" y="241"/>
      <point x="60" y="230"/>
      <point x="60" y="216" type="curve" smooth="yes"/>
      <point x="60" y="134" type="line" smooth="yes"/>
      <point x="60" y="120"/>
      <point x="71" y="109"/>
      <point x="85" y="109" type="curve" smooth="yes"/>
    </contour>
  </outline>
</glyph>
<glyph name="A" format="1">
  <advance width="720"/>
  <unicode hex="0041"/>
  <outline>
    <contour>
      <point x="159" y="0" type="line" smooth="yes"/>
      <point x="181" y="0"/>
      <point x="189" y="13"/>
      <point x="193" y="22" type="curve" smooth="yes"/>
      <point x="229" y="119" type="line"/>
      <point x="491" y="119" type="line"/>
      <point x="527" y="22" type="line" smooth="yes"/>
      <point x="531" y="13"/>
      <point x="539" y="0"/>
      <point x="561" y="0" type="curve" smooth="yes"/>
      <point x="691" y="0" type="line" smooth="yes"/>
      <point x="702" y="0"/>
      <point x="712" y="10"/>
      <point x="712" y="21" type="curve" smooth="yes"/>
      <point x="712" y="23"/>
      <point x="712" y="27"/>
      <point x="711" y="30" type="curve" smooth="yes"/>
      <point x="478" y="671" type="line"/>
      <point x="473" y="686"/>
      <point x="461" y="700"/>
      <point x="438" y="700" type="curve" smooth="yes"/>
      <point x="282" y="700" type="line" smooth="yes"/>
      <point x="259" y="700"/>
      <point x="247" y="686"/>
      <point x="242" y="671" type="curve"/>
      <point x="9" y="30" type="line" smooth="yes"/>
      <point x="8" y="27"/>
      <point x="8" y="23"/>
      <point x="8" y="21" type="curve" smooth="yes"/>
      <point x="8" y="10"/>
      <point x="18" y="0"/>
      <point x="29" y="0" type="curve" smooth="yes"/>
    </contour>
    <contour>
      <point x="359" y="524" type="line"/>
      <point x="448" y="269" type="line"/>
      <point x="271" y="269" type="line"/>
    </contour>
  </outline>
</glyph>
<glyph name="B" format="1">
  <advance width="707"/>
  <unicode hex="0042"/>
  <outline>
    <contour>
      <point x="411" y="0" type="line" smooth="yes"/>
      <point x="577" y="0"/>
      <point x="668" y="79"/>
      <point x="668" y="213" type="curve" smooth="yes"/>
      <point x="668" y="285"/>
      <point x="622" y="343"/>
      <point x="571" y="366" type="curve"/>
      <point x="605" y="383"/>
      <point x="653" y="429"/>
      <point x="653" y="500" type="curve" smooth="yes"/>
      <point x="653" y="625"/>
      <point x="576" y="700"/>
      <point x="402" y="700" type="curve" smooth="yes"/>
      <point x="93" y="700" type="line" smooth="yes"/>
      <point x="79" y="700"/>
      <point x="68" y="689"/>
      <point x="68" y="674" type="curve" smooth="yes"/>
      <point x="68" y="25" type="line" smooth="yes"/>
      <point x="68" y="11"/>
      <point x="79" y="0"/>
      <point x="93" y="0" type="curve" smooth="yes"/>
    </contour>
    <contour>
      <point x="256" y="292" type="line"/>
      <point x="390" y="292" type="line" smooth="yes"/>
      <point x="443" y="292"/>
      <point x="473" y="256"/>
      <point x="473" y="213" type="curve" smooth="yes"/>
      <point x="473" y="172"/>
      <point x="445" y="135"/>
      <point x="390" y="135" type="curve" smooth="yes"/>
      <point x="256" y="135" type="line"/>
    </contour>
    <contour>
      <point x="256" y="565" type="line"/>
      <point x="381" y="565" type="line" smooth="yes"/>
      <point x="433" y="565"/>
      <point x="459" y="535"/>
      <point x="459" y="495" type="curve" smooth="yes"/>
      <point x="459" y="455"/>
      <point x="433" y="423"/>
      <point x="381" y="423" type="curve" smooth="yes"/>
      <point x="256" y="423" type="line"/>
    </contour>
  </outline>
</glyph>
<glyph name="K" format="1">
  <advance width="668"/>
  <unicode hex="004B"/>
  <outline>
    <contour>
      <point x="227" y="0" type="line" smooth="yes"/>
      <point x="241" y="0"/>
      <point x="252" y="11"/>
      <point x="252" y="25" type="curve" smooth="yes"/>
      <point x="252" y="264" type="line"/>
      <point x="442" y="20" type="line" smooth="yes"/>
      <point x="445" y="15"/>
      <point x="457" y="0"/>
      <point x="482" y="0" type="curve" smooth="yes"/>
      <point x="639" y="0" type="line" smooth="yes"/>
      <point x="651" y="0"/>
      <point x="661" y="10"/>
      <point x="661" y="21" type="curve" smooth="yes"/>
      <point x="661" y="25"/>
      <point x="660" y="30"/>
      <point x="657" y="33" type="curve" smooth="yes"/>
      <point x="405" y="365" type="line"/>
      <point x="638" y="667" type="line" smooth="yes"/>
      <point x="641" y="670"/>
      <point x="642" y="675"/>
      <point x="642" y="679" type="curve" smooth="yes"/>
      <point x="642" y="690"/>
      <point x="632" y="700"/>
      <point x="621" y="700" type="curve" smooth="yes"/>
      <point x="468" y="700" type="line" smooth="yes"/>
      <point x="446" y="700"/>
      <point x="434" y="689"/>
      <point x="429" y="680" type="curve" smooth="yes"/>
      <point x="252" y="456" type="line"/>
      <point x="252" y="674" type="line" smooth="yes"/>
      <point x="252" y="689"/>
      <point x="241" y="700"/>
      <point x="227" y="700" type="curve" smooth="yes"/>
      <point x="93" y="700" type="line" smooth="yes"/>
      <point x="79" y="700"/>
      <point x="68" y="689"/>
      <point x="68" y="674" type="curve" smooth="yes"/>
      <point x="68" y="25" type="line" smooth="yes"/>
      <point x="68" y="11"/>
      <point x="79" y="0"/>
      <point x="93" y="0" type="curve" smooth="yes"/>
    </contour>
  </outline>
</glyph>
<glyph name="O" format="1">
  <advance width="715"/>
  <unicode hex="004F"/>
  <outline>
    <contour>
      <point x="544" y="-10"/>
      <point x="661" y="80"/>
      <point x="668" y="262" type="curve" smooth="yes"/>
      <point x="670" y="318"/>
      <point x="670" y="377"/>
      <point x="668" y="435" type="curve" smooth="yes"/>
      <point x="662" y="614"/>
      <point x="540" y="710"/>
      <point x="358" y="710" type="curve" smooth="yes"/>
      <point x="175" y="710"/>
      <point x="53" y="614"/>
      <point x="47" y="435" type="curve" smooth="yes"/>
      <point x="45" y="377"/>
      <point x="45" y="318"/>
      <point x="47" y="262" type="curve" smooth="yes"/>
      <point x="54" y="80"/>
      <point x="172" y="-10"/>
      <point x="358" y="-10" type="curve" smooth="yes"/>
    </contour>
    <contour>
      <point x="290" y="140"/>
      <point x="244" y="178"/>
      <point x="241" y="268" type="curve" smooth="yes"/>
      <point x="239" y="326"/>
      <point x="239" y="376"/>
      <point x="241" y="432" type="curve" smooth="yes"/>
      <point x="244" y="522"/>
      <point x="291" y="560"/>
      <point x="357" y="560" type="curve" smooth="yes"/>
      <point x="424" y="560"/>
      <point x="471" y="522"/>
      <point x="474" y="432" type="curve" smooth="yes"/>
      <point x="476" y="376"/>
      <point x="476" y="326"/>
      <point x="474" y="268" type="curve" smooth="yes"/>
      <point x="471" y="178"/>
      <point x="425" y="140"/>
      <point x="357" y="140" type="curve" smooth="yes"/>
    </contour>
  </outline>
</glyph>
<glyph name="P" format="1">
  <advance width="679"/>
  <unicode hex="0050"/>
  <outline>
    <contour>
      <point x="237" y="0" type="line" smooth="yes"/>
      <point x="251" y="0"/>
      <point x="262" y="11"/>
      <point x="262" y="25" type="curve" smooth="yes"/>
      <point x="262" y="241" type="line"/>
      <point x="376" y="241" type="line" smooth="yes"/>
      <point x="544" y="241"/>
      <point x="654" y="312"/>
      <point x="654" y="468" type="curve" smooth="yes"/>
      <point x="654" y="624"/>
      <point x="544" y="700"/>
      <point x="376" y="700" type="curve" smooth="yes"/>
      <point x="93" y="700" type="line" smooth="yes"/>
      <point x="79" y="700"/>
      <point x="68" y="689"/>
      <point x="68" y="674" type="curve" smooth="yes"/>
      <point x="68" y="25" type="line" smooth="yes"/>
      <point x="68" y="11"/>
      <point x="79" y="0"/>
      <point x="93" y="0" type="curve" smooth="yes"/>
    </contour>
    <contour>
      <point x="259" y="556" type="line"/>
      <point x="371" y="556" type="line" smooth="yes"/>
      <point x="434" y="556"/>
      <point x="459" y="517"/>
      <point x="459" y="469" type="curve" smooth="yes"/>
      <point x="459" y="411"/>
      <point x="424" y="384"/>
      <point x="371" y="384" type="curve" smooth="yes"/>
      <point x="259" y="384" type="line"/>
    </contour>
  </outline>
</glyph>
<glyph name="V" format="1">
  <advance width="697"/>
  <unicode hex="0056"/>
  <outline>
    <contour>
      <point x="429" y="0" type="line" smooth="yes"/>
      <point x="453" y="0"/>
      <point x="465" y="15"/>
      <point x="470" y="30" type="curve" smooth="yes"/>
      <point x="673" y="670" type="line" smooth="yes"/>
      <point x="674" y="674"/>
      <point x="674" y="677"/>
      <point x="674" y="679" type="curve" smooth="yes"/>
      <point x="674" y="690"/>
      <point x="664" y="700"/>
      <point x="653" y="700" type="curve" smooth="yes"/>
      <point x="522" y="700" type="line" smooth="yes"/>
      <point x="499" y="700"/>
      <point x="488" y="685"/>
      <point x="484" y="673" type="curve" smooth="yes"/>
      <point x="348" y="221" type="line"/>
      <point x="212" y="673" type="line" smooth="yes"/>
      <point x="208" y="685"/>
      <point x="197" y="700"/>
      <point x="174" y="700" type="curve" smooth="yes"/>
      <point x="43" y="700" type="line" smooth="yes"/>
      <point x="32" y="700"/>
      <point x="22" y="690"/>
      <point x="22" y="679" type="curve" smooth="yes"/>
      <point x="22" y="677"/>
      <point x="22" y="674"/>
      <point x="23" y="670" type="curve" smooth="yes"/>
      <point x="226" y="30" type="line" smooth="yes"/>
      <point x="231" y="15"/>
      <point x="243" y="0"/>
      <point x="267" y="0" type="curve" smooth="yes"/>
    </contour>
  </outline>
</glyph>
<glyph name="W" format="1">
  <advance width="833"/>
  <unicode hex="0057"/>
  <outline>
    <contour>
      <point x="280" y="0" type="line" smooth="yes"/>
      <point x="303" y="0"/>
      <point x="314" y="15"/>
      <point x="318" y="26" type="curve" smooth="yes"/>
      <point x="417" y="303" type="line"/>
      <point x="516" y="26" type="line" smooth="yes"/>
      <point x="519" y="15"/>
      <point x="530" y="0"/>
      <point x="553" y="0" type="curve" smooth="yes"/>
      <point x="654" y="0" type="line" smooth="yes"/>
      <point x="677" y="0"/>
      <point x="691" y="16"/>
      <point x="694" y="33" type="curve"/>
      <point x="801" y="673" type="line"/>
      <point x="801" y="675"/>
      <point x="801" y="677"/>
      <point x="801" y="679" type="curve" smooth="yes"/>
      <point x="801" y="690"/>
      <point x="792" y="700"/>
      <point x="780" y="700" type="curve" smooth="yes"/>
      <point x="649" y="700" type="line" smooth="yes"/>
      <point x="629" y="700"/>
      <point x="620" y="693"/>
      <point x="618" y="677" type="curve" smooth="yes"/>
      <point x="556" y="300" type="line"/>
      <point x="487" y="518" type="line" smooth="yes"/>
      <point x="484" y="528"/>
      <point x="476" y="545"/>
      <point x="454" y="545" type="curve" smooth="yes"/>
      <point x="379" y="545" type="line" smooth="yes"/>
      <point x="357" y="545"/>
      <point x="349" y="528"/>
      <point x="346" y="518" type="curve" smooth="yes"/>
      <point x="277" y="299" type="line"/>
      <point x="216" y="677" type="line" smooth="yes"/>
      <point x="214" y="693"/>
      <point x="204" y="700"/>
      <point x="184" y="700" type="curve" smooth="yes"/>
      <point x="53" y="700" type="line" smooth="yes"/>
      <point x="42" y="700"/>
      <point x="32" y="690"/>
      <point x="32" y="679" type="curve" smooth="yes"/>
      <point x="32" y="677"/>
      <point x="32" y="675"/>
      <point x="33" y="673" type="curve"/>
      <point x="140" y="33" type="line"/>
      <point x="142" y="16"/>
      <point x="156" y="0"/>
      <point x="180" y="0" type="curve" smooth="yes"/>
    </contour>
  </outline>
</glyph>
<glyph name="X" format="1">
  <advance width="696"/>
  <unicode hex="0058"/>
  <outline>
    <contour>
      <point x="184" y="0" type="line" smooth="yes"/>
      <point x="204" y="0"/>
      <point x="215" y="14"/>
      <point x="219" y="20" type="curve" smooth="yes"/>
      <point x="344" y="206" type="line"/>
      <point x="472" y="20" type="line" smooth="yes"/>
      <point x="476" y="14"/>
      <point x="486" y="0"/>
      <point x="507" y="0" type="curve" smooth="yes"/>
      <point x="665" y="0" type="line" smooth="yes"/>
      <point x="676" y="0"/>
      <point x="686" y="10"/>
      <point x="686" y="21" type="curve" smooth="yes"/>
      <point x="686" y="24"/>
      <point x="685" y="29"/>
      <point x="683" y="33" type="curve" smooth="yes"/>
      <point x="463" y="359" type="line"/>
      <point x="666" y="667" type="line" smooth="yes"/>
      <point x="668" y="671"/>
      <point x="669" y="674"/>
      <point x="669" y="679" type="curve" smooth="yes"/>
      <point x="669" y="690"/>
      <point x="659" y="700"/>
      <point x="648" y="700" type="curve" smooth="yes"/>
      <point x="502" y="700" type="line" smooth="yes"/>
      <point x="482" y="700"/>
      <point x="472" y="686"/>
      <point x="467" y="678" type="curve" smooth="yes"/>
      <point x="350" y="504" type="line"/>
      <point x="237" y="678" type="line" smooth="yes"/>
      <point x="232" y="686"/>
      <point x="221" y="700"/>
      <point x="201" y="700" type="curve" smooth="yes"/>
      <point x="48" y="700" type="line" smooth="yes"/>
      <point x="37" y="700"/>
      <point x="27" y="690"/>
      <point x="27" y="679" type="curve" smooth="yes"/>
      <point x="27" y="674"/>
      <point x="28" y="671"/>
      <point x="30" y="667" type="curve" smooth="yes"/>
      <point x="231" y="357" type="line"/>
      <point x="13" y="33" type="line" smooth="yes"/>
      <point x="11" y="29"/>
      <point x="10" y="24"/>
      <point x="10" y="21" type="curve" smooth="yes"/>
      <point x="10" y="10"/>
      <point x="20" y="0"/>
      <point x="31" y="0" type="curve" smooth="yes"/>
    </contour>
  </outline>
</glyph>
<glyph name="Z" format="1">
  <advance width="655"/>
  <unicode hex="005A"/>
  <outline>
    <contour>
      <point x="593" y="0" type="line" smooth="yes"/>
      <point x="608" y="0"/>
      <point x="619" y="11"/>
      <point x="619" y="25" type="curve" smooth="yes"/>
      <point x="619" y="131" type="line" smooth="yes"/>
      <point x="619" y="146"/>
      <point x="608" y="157"/>
      <point x="593" y="157" type="curve" smooth="yes"/>
      <point x="286" y="157" type="line"/>
      <point x="594" y="539" type="line" smooth="yes"/>
      <point x="601" y="547"/>
      <point x="607" y="558"/>
      <point x="607" y="573" type="curve" smooth="yes"/>
      <point x="607" y="674" type="line" smooth="yes"/>
      <point x="607" y="689"/>
      <point x="596" y="700"/>
      <point x="581" y="700" type="curve" smooth="yes"/>
      <point x="72" y="700" type="line" smooth="yes"/>
      <point x="58" y="700"/>
      <point x="47" y="689"/>
      <point x="47" y="674" type="curve" smooth="yes"/>
      <point x="47" y="570" type="line" smooth="yes"/>
      <point x="47" y="556"/>
      <point x="58" y="545"/>
      <point x="72" y="545" type="curve" smooth="yes"/>
      <point x="370" y="545" type="line"/>
      <point x="52" y="164" type="line" smooth="yes"/>
      <point x="47" y="159"/>
      <point x="37" y="148"/>
      <point x="37" y="128" type="curve" smooth="yes"/>
      <point x="37" y="26" type="line" smooth="yes"/>
      <point x="37" y="11"/>
      <point x="48" y="0"/>
      <point x="62" y="0" type="curve" smooth="yes"/>
    </contour>
  </outline>
</glyph>
<glyph name="backslash" format="1">
  <advance width="538"/>
  <unicode hex="005C"/>
  <outline>
    <contour>
      <point x="494" y="-84" type="line" smooth="yes"/>
      <point x="506" y="-84"/>
      <point x="515" y="-74"/>
      <point x="515" y="-63" type="curve" smooth="yes"/>
      <point x="515" y="-61"/>
      <point x="515" y="-58"/>
      <point x="513" y="-53" type="curve"/>
      <point x="175" y="761" type="line" smooth="yes"/>
      <point x="170" y="772"/>
      <point x="159" y="786"/>
      <point x="138" y="786" type="curve" smooth="yes"/>
      <point x="43" y="786" type="line" smooth="yes"/>
      <point x="32" y="786"/>
      <point x="22" y="776"/>
      <point x="22" y="765" type="curve" smooth="yes"/>
      <point x="22" y="763"/>
      <point x="22" y="760"/>
      <point x="24" y="755" type="curve" smooth="yes"/>
      <point x="364" y="-59" type="line" smooth="yes"/>
      <point x="368" y="-69"/>
      <point x="379" y="-84"/>
      <point x="401" y="-84" type="curve" smooth="yes"/>
    </contour>
  </outline>
</glyph>
<glyph name="asciicircum" format="1">
  <advance width="467"/>
  <unicode hex="005E"/>
  <outline>
    <contour>
      <point x="111" y="588" type="line" smooth="yes"/>
      <point x="122" y="588"/>
      <point x="135" y="589"/>
      <point x="146" y="595" type="curve" smooth="yes"/>
      <point x="234" y="643" type="line"/>
      <point x="322" y="595" type="line" smooth="yes"/>
      <point x="333" y="589"/>
      <point x="346" y="588"/>
      <point x="357" y="588" type="curve" smooth="yes"/>
      <point x="407" y="588" type="line" smooth="yes"/>
      <point x="417" y="588"/>
      <point x="422" y="593"/>
      <point x="422" y="603" type="curve" smooth="yes"/>
      <point x="422" y="608"/>
      <point x="419" y="613"/>
      <point x="415" y="618" type="curve" smooth="yes"/>
      <point x="311" y="728" type="line" smooth="yes"/>
      <point x="298" y="742"/>
      <point x="289" y="745"/>
      <point x="276" y="745" type="curve" smooth="yes"/>
      <point x="192" y="745" type="line" smooth="yes"/>
      <point x="179" y="745"/>
      <point x="170" y="742"/>
      <point x="157" y="728" type="curve" smooth="yes"/>
      <point x="53" y="618" type="line" smooth="yes"/>
      <point x="49" y="613"/>
      <point x="46" y="608"/>
      <point x="46" y="603" type="curve" smooth="yes"/>
      <point x="46" y="593"/>
      <point x="51" y="588"/>
      <point x="61" y="588" type="curve" smooth="yes"/>
    </contour>
  </outline>
</glyph>
<glyph name="dieresis" format="1">
  <advance width="465"/>
  <unicode hex="00A8"/>
  <outline>
    <contour>
      <point x="385" y="606" type="line" smooth="yes"/>
      <point x="398" y="606"/>
      <point x="408" y="615"/>
      <point x="408" y="628" type="curve" smooth="yes"/>
      <point x="408" y="724" type="line" smooth="yes"/>
      <point x="408" y="737"/>
      <point x="398" y="747"/>
      <point x="385" y="747" type="curve" smooth="yes"/>
      <point x="290" y="747" type="line" smooth="yes"/>
      <point x="277" y="747"/>
      <point x="267" y="737"/>
      <point x="267" y="724" type="curve" smooth="yes"/>
      <point x="267" y="628" type="line" smooth="yes"/>
      <point x="267" y="615"/>
      <point x="277" y="606"/>
      <point x="290" y="606" type="curve" smooth="yes"/>
    </contour>
    <contour>
      <point x="175" y="606" type="line" smooth="yes"/>
      <point x="188" y="606"/>
      <point x="198" y="615"/>
      <point x="198" y="628" type="curve" smooth="yes"/>
      <point x="198" y="724" type="line" smooth="yes"/>
      <point x="198" y="737"/>
      <point x="188" y="747"/>
      <point x="175" y="747" type="curve" smooth="yes"/>
      <point x="80" y="747" type="line" smooth="yes"/>
      <point x="67" y="747"/>
      <point x="57" y="737"/>
      <point x="57" y="724" type="curve" smooth="yes"/>
      <point x="57" y="628" type="line" smooth="yes"/>
      <point x="57" y="615"/>
      <point x="67" y="606"/>
      <point x="80" y="606" type="curve" smooth="yes"/>
    </contour>
  </outline>
</glyph>
<glyph name="copyright" format="1">
  <advance width="806"/>
  <unicode hex="00A9"/>
  <outline>
    <contour>
      <point x="602" y="-10"/>
      <point x="763" y="151"/>
      <point x="763" y="350" type="curve" smooth="yes"/>
      <point x="763" y="549"/>
      <point x="602" y="710"/>
      <point x="403" y="710" type="curve" smooth="yes"/>
      <point x="204" y="710"/>
      <point x="43" y="549"/>
      <point x="43" y="350" type="curve" smooth="yes"/>
      <point x="43" y="151"/>
      <point x="204" y="-10"/>
      <point x="403" y="-10" type="curve" smooth="yes"/>
    </contour>
    <contour>
      <point x="251" y="72"/>
      <point x="130" y="197"/>
      <point x="130" y="350" type="curve" smooth="yes"/>
      <point x="130" y="503"/>
      <point x="251" y="628"/>
      <point x="403" y="628" type="curve" smooth="yes"/>
      <point x="556" y="628"/>
      <point x="677" y="503"/>
      <point x="677" y="350" type="curve" smooth="yes"/>
      <point x="677" y="197"/>
      <point x="556" y="72"/>
      <point x="403" y="72" type="curve" smooth="yes"/>
    </contour>
    <contour>
      <point x="522" y="158"/>
      <point x="575" y="226"/>
      <point x="577" y="280" type="curve" smooth="yes"/>
      <point x="577" y="293"/>
      <point x="568" y="302"/>
      <point x="555" y="302" type="curve" smooth="yes"/>
      <point x="485" y="302" type="line" smooth="yes"/>
      <point x="470" y="302"/>
      <point x="464" y="290"/>
      <point x="460" y="281" type="curve" smooth="yes"/>
      <point x="449" y="257"/>
      <point x="434" y="247"/>
      <point x="403" y="247" type="curve" smooth="yes"/>
      <point x="355" y="247"/>
      <point x="346" y="285"/>
      <point x="344" y="317" type="curve" smooth="yes"/>
      <point x="343" y="330"/>
      <point x="343" y="372"/>
      <point x="344" y="385" type="curve" smooth="yes"/>
      <point x="346" y="417"/>
      <point x="355" y="455"/>
      <point x="403" y="455" type="curve" smooth="yes"/>
      <point x="434" y="455"/>
      <point x="449" y="445"/>
      <point x="460" y="421" type="curve" smooth="yes"/>
      <point x="464" y="412"/>
      <point x="470" y="400"/>
      <point x="485" y="400" type="curve" smooth="yes"/>
      <point x="555" y="400" type="line" smooth="yes"/>
      <point x="568" y="400"/>
      <point x="577" y="409"/>
      <point x="577" y="422" type="curve" smooth="yes"/>
      <point x="575" y="476"/>
      <point x="522" y="544"/>
      <point x="403" y="544" type="curve" smooth="yes"/>
      <point x="298" y="544"/>
      <point x="236" y="480"/>
      <point x="232" y="388" type="curve" smooth="yes"/>
      <point x="231" y="375"/>
      <point x="231" y="327"/>
      <point x="232" y="314" type="curve" smooth="yes"/>
      <point x="236" y="222"/>
      <point x="298" y="158"/>
      <point x="403" y="158" type="curve" smooth="yes"/>
    </contour>
  </outline>
</glyph>
<glyph name="guillemetleft" format="1">
  <advance width="622"/>
  <unicode hex="00AB"/>
  <outline>
    <contour>
      <point x="558" y="65"/>
      <point x="567" y="75"/>
      <point x="567" y="87" type="curve" smooth="yes"/>
      <point x="567" y="186" type="line" smooth="yes"/>
      <point x="567" y="207"/>
      <point x="562" y="215"/>
      <point x="549" y="228" type="curve" smooth="yes"/>
      <point x="447" y="329" type="line"/>
      <point x="549" y="430" type="line" smooth="yes"/>
      <point x="562" y="443"/>
      <point x="567" y="451"/>
      <point x="567" y="472" type="curve" smooth="yes"/>
      <point x="567" y="571" type="line" smooth="yes"/>
      <point x="567" y="583"/>
      <point x="558" y="593"/>
      <point x="546" y="593" type="curve" smooth="yes"/>
      <point x="542" y="593"/>
      <point x="535" y="591"/>
      <point x="528" y="585" type="curve" smooth="yes"/>
      <point x="321" y="384" type="line" smooth="yes"/>
      <point x="311" y="375"/>
      <point x="306" y="365"/>
      <point x="306" y="354" type="curve" smooth="yes"/>
      <point x="306" y="304" type="line" smooth="yes"/>
      <point x="306" y="293"/>
      <point x="311" y="283"/>
      <point x="321" y="274" type="curve" smooth="yes"/>
      <point x="528" y="73" type="line" smooth="yes"/>
      <point x="535" y="67"/>
      <point x="542" y="65"/>
      <point x="546" y="65" type="curve" smooth="yes"/>
    </contour>
    <contour>
      <point x="282" y="65"/>
      <point x="291" y="75"/>
      <point x="291" y="87" type="curve" smooth="yes"/>
      <point x="291" y="186" type="line" smooth="yes"/>
      <point x="291" y="207"/>
      <point x="286" y="215"/>
      <point x="273" y="228" type="curve" smooth="yes"/>
      <point x="171" y="329" type="line"/>
      <point x="273" y="430" type="line" smooth="yes"/>
      <point x="286" y="443"/>
      <point x="291" y="451"/>
      <point x="291" y="472" type="curve" smooth="yes"/>
      <point x="291" y="571" type="line" smooth="yes"/>
      <point x="291" y="583"/>
      <point x="282" y="593"/>
      <point x="270" y="593" type="curve" smooth="yes"/>
      <point x="266" y="593"/>
      <point x="259" y="591"/>
      <point x="252" y="585" type="curve" smooth="yes"/>
      <point x="45" y="384" type="line" smooth="yes"/>
      <point x="35" y="375"/>
      <point x="30" y="365"/>
      <point x="30" y="354" type="curve"/>
      <point x="30" y="304" type="line" smooth="yes"/>
      <point x="30" y="293"/>
      <point x="35" y="283"/>
      <point x="45" y="274" type="curve" smooth="yes"/>
      <point x="252" y="73" type="line" smooth="yes"/>
      <point x="259" y="67"/>
      <point x="266" y="65"/>
      <point x="270" y="65" type="curve" smooth="yes"/>
    </contour>
  </outline>
</glyph>
<glyph name="Dcroat" format="1">
  <advance width="737"/>
  <unicode hex="0110"/>
  <outline>
    <contour>
      <point x="376" y="0" type="line" smooth="yes"/>
      <point x="572" y="0"/>
      <point x="683" y="87"/>
      <point x="689" y="274" type="curve" smooth="yes"/>
      <point x="691" y="330"/>
      <point x="691" y="369"/>
      <point x="689" y="427" type="curve" smooth="yes"/>
      <point x="684" y="604"/>
      <point x="569" y="700"/>
      <point x="374" y="700" type="curve"/>
      <point x="111" y="700" type="line" smooth="yes"/>
      <point x="97" y="700"/>
      <point x="86" y="689"/>
      <point x="86" y="674" type="curve" smooth="yes"/>
      <point x="86" y="414" type="line"/>
      <point x="39" y="414" type="line" smooth="yes"/>
      <point x="25" y="414"/>
      <point x="14" y="403"/>
      <point x="14" y="389" type="curve" smooth="yes"/>
      <point x="14" y="316" type="line" smooth="yes"/>
      <point x="14" y="302"/>
      <point x="25" y="291"/>
      <point x="39" y="291" type="curve" smooth="yes"/>
      <point x="86" y="291" type="line"/>
      <point x="86" y="25" type="line" smooth="yes"/>
      <point x="86" y="11"/>
      <point x="97" y="0"/>
      <point x="111" y="0" type="curve" smooth="yes"/>
    </contour>
    <contour>
      <point x="274" y="291" type="line"/>
      <point x="361" y="291" type="line" smooth="yes"/>
      <point x="376" y="291"/>
      <point x="387" y="302"/>
      <point x="387" y="316" type="curve" smooth="yes"/>
      <point x="387" y="389" type="line" smooth="yes"/>
      <point x="387" y="403"/>
      <point x="376" y="414"/>
      <point x="361" y="414" type="curve" smooth="yes"/>
      <point x="274" y="414" type="line"/>
      <point x="274" y="550" type="line"/>
      <point x="373" y="550" type="line" smooth="yes"/>
      <point x="456" y="550"/>
      <point x="497" y="511"/>
      <point x="500" y="425" type="curve" smooth="yes"/>
      <point x="502" y="368"/>
      <point x="502" y="334"/>
      <point x="500" y="276" type="curve" smooth="yes"/>
      <point x="497" y="187"/>
      <point x="457" y="150"/>
      <point x="375" y="150" type="curve" smooth="yes"/>
      <point x="274" y="150" type="line"/>
    </contour>
  </outline>
</glyph>
<glyph name="IJ" format="1">
  <advance width="734"/>
  <unicode hex="0132"/>
  <outline>
    <contour>
      <point x="557" y="-10"/>
      <point x="672" y="63"/>
      <point x="672" y="257" type="curve" smooth="yes"/>
      <point x="672" y="674" type="line" smooth="yes"/>
      <point x="672" y="689"/>
      <point x="661" y="700"/>
      <point x="647" y="700" type="curve" smooth="yes"/>
      <point x="504" y="700" type="line" smooth="yes"/>
      <point x="490" y="700"/>
      <point x="479" y="689"/>
      <point x="479" y="675" type="curve"/>
      <point x="479" y="284" type="line" smooth="yes"/>
      <point x="479" y="196"/>
      <point x="443" y="153"/>
      <point x="366" y="153" type="curve" smooth="yes"/>
      <point x="352" y="153"/>
      <point x="341" y="142"/>
      <point x="341" y="128" type="curve" smooth="yes"/>
      <point x="341" y="15" type="line" smooth="yes"/>
      <point x="341" y="1"/>
      <point x="352" y="-10"/>
      <point x="366" y="-10" type="curve" smooth="yes"/>
    </contour>
    <contour>
      <point x="236" y="0" type="line" smooth="yes"/>
      <point x="250" y="0"/>
      <point x="261" y="11"/>
      <point x="261" y="25" type="curve" smooth="yes"/>
      <point x="261" y="675" type="line" smooth="yes"/>
      <point x="261" y="689"/>
      <point x="250" y="700"/>
      <point x="236" y="700" type="curve" smooth="yes"/>
      <point x="93" y="700" type="line" smooth="yes"/>
      <point x="79" y="700"/>
      <point x="68" y="689"/>
      <point x="68" y="675" type="curve" smooth="yes"/>
      <point x="68" y="25" type="line" smooth="yes"/>
      <point x="68" y="11"/>
      <point x="79" y="0"/>
      <point x="93" y="0" type="curve" smooth="yes"/>
    </contour>
  </outline>
</glyph>
<glyph name="lslash" format="1">
  <advance width="349"/>
  <unicode hex="0142"/>
  <outline>
    <contour>
      <point x="238" y="0" type="line" smooth="yes"/>
      <point x="252" y="0"/>
      <point x="263" y="11"/>
      <point x="263" y="25" type="curve" smooth="yes"/>
      <point x="263" y="326" type="line"/>
      <point x="304" y="343" type="line" smooth="yes"/>
      <point x="320" y="349"/>
      <point x="326" y="356"/>
      <point x="326" y="373" type="curve" smooth="yes"/>
      <point x="326" y="451" type="line" smooth="yes"/>
      <point x="326" y="463"/>
      <point x="318" y="471"/>
      <point x="306" y="471" type="curve" smooth="yes"/>
      <point x="303" y="471"/>
      <point x="299" y="470"/>
      <point x="294" y="468" type="curve" smooth="yes"/>
      <point x="263" y="456" type="line"/>
      <point x="263" y="685" type="line" smooth="yes"/>
      <point x="263" y="699"/>
      <point x="252" y="710"/>
      <point x="238" y="710" type="curve" smooth="yes"/>
      <point x="113" y="710" type="line" smooth="yes"/>
      <point x="98" y="710"/>
      <point x="87" y="699"/>
      <point x="87" y="685" type="curve" smooth="yes"/>
      <point x="87" y="388" type="line"/>
      <point x="46" y="372" type="line" smooth="yes"/>
      <point x="30" y="366"/>
      <point x="24" y="359"/>
      <point x="24" y="342" type="curve" smooth="yes"/>
      <point x="24" y="264" type="line" smooth="yes"/>
      <point x="24" y="252"/>
      <point x="33" y="244"/>
      <point x="44" y="244" type="curve" smooth="yes"/>
      <point x="47" y="244"/>
      <point x="51" y="245"/>
      <point x="56" y="247" type="curve" smooth="yes"/>
      <point x="87" y="259" type="line"/>
      <point x="87" y="25" type="line" smooth="yes"/>
      <point x="87" y="11"/>
      <point x="98" y="0"/>
      <point x="113" y="0" type="curve" smooth="yes"/>
    </contour>
  </outline>
</glyph>
<glyph name="tbar" format="1">
  <advance width="478"/>
  <unicode hex="0167"/>
  <outline>
    <contour>
      <point x="427" y="0" type="line" smooth="yes"/>
      <point x="441" y="0"/>
      <point x="452" y="11"/>
      <point x="452" y="25" type="curve" smooth="yes"/>
      <point x="452" y="117" type="line" smooth="yes"/>
      <point x="452" y="132"/>
      <point x="441" y="143"/>
      <point x="427" y="143" type="curve" smooth="yes"/>
      <point x="348" y="143" type="line" smooth="yes"/>
      <point x="308" y="143"/>
      <point x="293" y="169"/>
      <point x="293" y="214" type="curve" smooth="yes"/>
      <point x="293" y="278" type="line"/>
      <point x="418" y="278" type="line" smooth="yes"/>
      <point x="433" y="278"/>
      <point x="444" y="289"/>
      <point x="444" y="303" type="curve" smooth="yes"/>
      <point x="444" y="342" type="line" smooth="yes"/>
      <point x="444" y="356"/>
      <point x="433" y="367"/>
      <point x="418" y="367" type="curve" smooth="yes"/>
      <point x="293" y="367" type="line"/>
      <point x="293" y="431" type="line"/>
      <point x="418" y="431" type="line" smooth="yes"/>
      <point x="433" y="431"/>
      <point x="444" y="442"/>
      <point x="444" y="456" type="curve" smooth="yes"/>
      <point x="444" y="495" type="line" smooth="yes"/>
      <point x="444" y="509"/>
      <point x="433" y="520"/>
      <point x="418" y="520" type="curve" smooth="yes"/>
      <point x="293" y="520" type="line"/>
      <point x="293" y="685" type="line" smooth="yes"/>
      <point x="293" y="699"/>
      <point x="282" y="710"/>
      <point x="268" y="710" type="curve" smooth="yes"/>
      <point x="145" y="710" type="line" smooth="yes"/>
      <point x="131" y="710"/>
      <point x="120" y="699"/>
      <point x="120" y="685" type="curve" smooth="yes"/>
      <point x="120" y="520" type="line"/>
      <point x="41" y="520" type="line" smooth="yes"/>
      <point x="27" y="520"/>
      <point x="16" y="509"/>
      <point x="16" y="495" type="curve" smooth="yes"/>
      <point x="16" y="456" type="line" smooth="yes"/>
      <point x="16" y="442"/>
      <point x="27" y="431"/>
      <point x="41" y="431" type="curve" smooth="yes"/>
      <point x="120" y="431" type="line"/>
      <point x="120" y="367" type="line"/>
      <point x="41" y="367" type="line" smooth="yes"/>
      <point x="27" y="367"/>
      <point x="16" y="356"/>
      <point x="16" y="342" type="curve" smooth="yes"/>
      <point x="16" y="303" type="line" smooth="yes"/>
      <point x="16" y="289"/>
      <point x="27" y="278"/>
      <point x="41" y="278" type="curve" smooth="yes"/>
      <point x="120" y="278" type="line"/>
      <point x="120" y="199" type="line" smooth="yes"/>
      <point x="120" y="58"/>
      <point x="200" y="0"/>
      <point x="332" y="0" type="curve" smooth="yes"/>
    </contour>
  </outline>
</glyph>
<glyph name="florin" format="1">
  <advance width="480"/>
  <unicode hex="0192"/>
  <outline>
    <contour>
      <point x="56" y="-225" type="line" smooth="yes"/>
      <point x="225" y="-225"/>
      <point x="304" y="-145"/>
      <point x="304" y="13" type="curve" smooth="yes"/>
      <point x="304" y="384" type="line"/>
      <point x="423" y="384" type="line" smooth="yes"/>
      <point x="437" y="384"/>
      <point x="448" y="395"/>
      <point x="448" y="409" type="curve" smooth="yes"/>
      <point x="448" y="495" type="line" smooth="yes"/>
      <point x="448" y="509"/>
      <point x="437" y="520"/>
      <point x="423" y="520" type="curve" smooth="yes"/>
      <point x="304" y="520" type="line"/>
      <point x="304" y="545" type="line" smooth="yes"/>
      <point x="304" y="583"/>
      <point x="319" y="604"/>
      <point x="362" y="604" type="curve" smooth="yes"/>
      <point x="434" y="604" type="line" smooth="yes"/>
      <point x="448" y="604"/>
      <point x="459" y="615"/>
      <point x="459" y="629" type="curve" smooth="yes"/>
      <point x="459" y="715" type="line" smooth="yes"/>
      <point x="459" y="729"/>
      <point x="448" y="740"/>
      <point x="434" y="740" type="curve" smooth="yes"/>
      <point x="354" y="740" type="line" smooth="yes"/>
      <point x="217" y="740"/>
      <point x="131" y="689"/>
      <point x="131" y="550" type="curve" smooth="yes"/>
      <point x="131" y="520" type="line"/>
      <point x="55" y="520" type="line" smooth="yes"/>
      <point x="41" y="520"/>
      <point x="30" y="509"/>
      <point x="30" y="495" type="curve" smooth="yes"/>
      <point x="30" y="409" type="line" smooth="yes"/>
      <point x="30" y="395"/>
      <point x="41" y="384"/>
      <point x="55" y="384" type="curve" smooth="yes"/>
      <point x="131" y="384" type="line"/>
      <point x="131" y="20" type="line" smooth="yes"/>
      <point x="131" y="-41"/>
      <point x="112" y="-70"/>
      <point x="56" y="-70" type="curve" smooth="yes"/>
      <point x="27" y="-70" type="line" smooth="yes"/>
      <point x="13" y="-70"/>
      <point x="2" y="-81"/>
      <point x="2" y="-96" type="curve" smooth="yes"/>
      <point x="2" y="-200" type="line"/>
      <point x="2" y="-214"/>
      <point x="13" y="-225"/>
      <point x="27" y="-225" type="curve" smooth="yes"/>
    </contour>
  </outline>
</glyph>
<glyph name="Be-cy" format="1">
  <advance width="659"/>
  <unicode hex="0411"/>
  <outline>
    <contour>
      <point x="373" y="0" type="line" smooth="yes"/>
      <point x="542" y="0"/>
      <point x="634" y="96"/>
      <point x="634" y="220" type="curve" smooth="yes"/>
      <point x="634" y="354"/>
      <point x="533" y="432"/>
      <point x="373" y="432" type="curve" smooth="yes"/>
      <point x="256" y="432" type="line"/>
      <point x="256" y="550" type="line"/>
      <point x="541" y="550" type="line" smooth="yes"/>
      <point x="556" y="550"/>
      <point x="567" y="561"/>
      <point x="567" y="575" type="curve" smooth="yes"/>
      <point x="567" y="674" type="line" smooth="yes"/>
      <point x="567" y="689"/>
      <point x="556" y="700"/>
      <point x="541" y="700" type="curve" smooth="yes"/>
      <point x="93" y="700" type="line"/>
      <point x="79" y="700"/>
      <point x="68" y="689"/>
      <point x="68" y="674" type="curve" smooth="yes"/>
      <point x="68" y="25" type="line" smooth="yes"/>
      <point x="68" y="11"/>
      <point x="79" y="0"/>
      <point x="93" y="0" type="curve" smooth="yes"/>
    </contour>
    <contour>
      <point x="256" y="301" type="line"/>
      <point x="369" y="301" type="line" smooth="yes"/>
      <point x="425" y="301"/>
      <point x="452" y="264"/>
      <point x="452" y="221" type="curve" smooth="yes"/>
      <point x="452" y="180"/>
      <point x="424" y="135"/>
      <point x="369" y="135" type="curve" smooth="yes"/>
      <point x="256" y="135" type="line"/>
    </contour>
  </outline>
</glyph>
<glyph name="Zhe-cy" format="1">
  <advance width="874"/>
  <unicode hex="0416"/>
  <outline>
    <contour>
      <point x="175" y="0" type="line" smooth="yes"/>
      <point x="196" y="0"/>
      <point x="207" y="14"/>
      <point x="210" y="20" type="curve" smooth="yes"/>
      <point x="351" y="277" type="line"/>
      <point x="351" y="25" type="line" smooth="yes"/>
      <point x="351" y="11"/>
      <point x="362" y="0"/>
      <point x="376" y="0" type="curve" smooth="yes"/>
      <point x="497" y="0" type="line" smooth="yes"/>
      <point x="511" y="0"/>
      <point x="522" y="11"/>
      <point x="522" y="25" type="curve" smooth="yes"/>
      <point x="522" y="277" type="line"/>
      <point x="663" y="20" type="line" smooth="yes"/>
      <point x="666" y="14"/>
      <point x="677" y="0"/>
      <point x="698" y="0" type="curve" smooth="yes"/>
      <point x="838" y="0" type="line" smooth="yes"/>
      <point x="849" y="0"/>
      <point x="859" y="10"/>
      <point x="859" y="21" type="curve" smooth="yes"/>
      <point x="859" y="25"/>
      <point x="858" y="30"/>
      <point x="856" y="33" type="curve" smooth="yes"/>
      <point x="666" y="362" type="line"/>
      <point x="841" y="667" type="line" smooth="yes"/>
      <point x="843" y="670"/>
      <point x="844" y="674"/>
      <point x="844" y="679" type="curve" smooth="yes"/>
      <point x="844" y="690"/>
      <point x="834" y="700"/>
      <point x="823" y="700" type="curve" smooth="yes"/>
      <point x="687" y="700" type="line" smooth="yes"/>
      <point x="668" y="700"/>
      <point x="657" y="688"/>
      <point x="653" y="680" type="curve" smooth="yes"/>
      <point x="522" y="438" type="line"/>
      <point x="522" y="675" type="line" smooth="yes"/>
      <point x="522" y="689"/>
      <point x="511" y="700"/>
      <point x="497" y="700" type="curve" smooth="yes"/>
      <point x="376" y="700" type="line" smooth="yes"/>
      <point x="362" y="700"/>
      <point x="351" y="689"/>
      <point x="351" y="675" type="curve" smooth="yes"/>
      <point x="351" y="438" type="line"/>
      <point x="220" y="680" type="line" smooth="yes"/>
      <point x="216" y="688"/>
      <point x="205" y="700"/>
      <point x="186" y="700" type="curve" smooth="yes"/>
      <point x="50" y="700" type="line" smooth="yes"/>
      <point x="39" y="700"/>
      <point x="29" y="690"/>
      <point x="29" y="679" type="curve" smooth="yes"/>
      <point x="29" y="674"/>
      <point x="30" y="670"/>
      <point x="32" y="667" type="curve" smooth="yes"/>
      <point x="207" y="362" type="line"/>
      <point x="17" y="33" type="line" smooth="yes"/>
      <point x="15" y="30"/>
      <point x="14" y="25"/>
      <point x="14" y="21" type="curve" smooth="yes"/>
      <point x="14" y="10"/>
      <point x="24" y="0"/>
      <point x="35" y="0" type="curve" smooth="yes"/>
    </contour>
  </outline>
</glyph>
<glyph name="Che-cy" format="1">
  <advance width="693"/>
  <unicode hex="0427"/>
  <outline>
    <contour>
      <point x="600" y="0" type="line" smooth="yes"/>
      <point x="615" y="0"/>
      <point x="626" y="11"/>
      <point x="626" y="25" type="curve" smooth="yes"/>
      <point x="626" y="675" type="line" smooth="yes"/>
      <point x="626" y="689"/>
      <point x="615" y="700"/>
      <point x="600" y="700" type="curve" smooth="yes"/>
      <point x="457" y="700" type="line" smooth="yes"/>
      <point x="443" y="700"/>
      <point x="432" y="689"/>
      <point x="432" y="675" type="curve" smooth="yes"/>
      <point x="432" y="403" type="line"/>
      <point x="324" y="403" type="line" smooth="yes"/>
      <point x="256" y="403"/>
      <point x="230" y="429"/>
      <point x="230" y="497" type="curve" smooth="yes"/>
      <point x="230" y="675" type="line" smooth="yes"/>
      <point x="230" y="689"/>
      <point x="219" y="700"/>
      <point x="204" y="700" type="curve" smooth="yes"/>
      <point x="62" y="700" type="line" smooth="yes"/>
      <point x="47" y="700"/>
      <point x="36" y="689"/>
      <point x="36" y="675" type="curve" smooth="yes"/>
      <point x="36" y="489" type="line" smooth="yes"/>
      <point x="35" y="309"/>
      <point x="134" y="231"/>
      <point x="314" y="231" type="curve" smooth="yes"/>
      <point x="432" y="231" type="line"/>
      <point x="432" y="25" type="line" smooth="yes"/>
      <point x="432" y="11"/>
      <point x="443" y="0"/>
      <point x="457" y="0" type="curve" smooth="yes"/>
    </contour>
  </outline>
</glyph>
<glyph name="Yeru-cy" format="1">
  <advance width="955"/>
  <unicode hex="042B"/>
  <outline>
    <contour>
      <point x="380" y="0" type="line"/>
      <point x="553" y="0"/>
      <point x="654" y="91"/>
      <point x="654" y="231" type="curve" smooth="yes"/>
      <point x="654" y="382"/>
      <point x="549" y="456"/>
      <point x="380" y="456" type="curve" smooth="yes"/>
      <point x="262" y="456" type="line"/>
      <point x="262" y="675" type="line" smooth="yes"/>
      <point x="262" y="689"/>
      <point x="251" y="700"/>
      <point x="237" y="700" type="curve" smooth="yes"/>
      <point x="93" y="700" type="line" smooth="yes"/>
      <point x="79" y="700"/>
      <point x="68" y="689"/>
      <point x="68" y="675" type="curve" smooth="yes"/>
      <point x="68" y="25" type="line" smooth="yes"/>
      <point x="68" y="11"/>
      <point x="79" y="0"/>
      <point x="93" y="0" type="curve" smooth="yes"/>
    </contour>
    <contour>
      <point x="259" y="312" type="line"/>
      <point x="377" y="312" type="line" smooth="yes"/>
      <point x="426" y="312"/>
      <point x="460" y="284"/>
      <point x="460" y="231" type="curve" smooth="yes"/>
      <point x="460" y="188"/>
      <point x="434" y="144"/>
      <point x="377" y="144" type="curve" smooth="yes"/>
      <point x="259" y="144" type="line"/>
    </contour>
    <contour>
      <point x="861" y="0" type="line"/>
      <point x="876" y="0"/>
      <point x="887" y="11"/>
      <point x="887" y="25" type="curve" smooth="yes"/>
      <point x="887" y="675" type="line" smooth="yes"/>
      <point x="887" y="689"/>
      <point x="876" y="700"/>
      <point x="861" y="700" type="curve" smooth="yes"/>
      <point x="719" y="700" type="line" smooth="yes"/>
      <point x="705" y="700"/>
      <point x="694" y="689"/>
      <point x="694" y="675" type="curve" smooth="yes"/>
      <point x="694" y="25" type="line" smooth="yes"/>
      <point x="694" y="11"/>
      <point x="705" y="0"/>
      <point x="719" y="0" type="curve" smooth="yes"/>
    </contour>
  </outline>
</glyph>
<glyph name="ve-cy" format="1">
  <advance width="620"/>
  <unicode hex="0432"/>
  <outline>
    <contour>
      <point x="351" y="0" type="line"/>
      <point x="511" y="0"/>
      <point x="584" y="59"/>
      <point x="584" y="154" type="curve" smooth="yes"/>
      <point x="584" y="207"/>
      <point x="563" y="241"/>
      <point x="518" y="269" type="curve"/>
      <point x="545" y="292"/>
      <point x="567" y="321"/>
      <point x="567" y="371" type="curve" smooth="yes"/>
      <point x="567" y="462"/>
      <point x="497" y="520"/>
      <point x="336" y="520" type="curve" smooth="yes"/>
      <point x="82" y="520" type="line" smooth="yes"/>
      <point x="68" y="520"/>
      <point x="57" y="509"/>
      <point x="57" y="495" type="curve" smooth="yes"/>
      <point x="57" y="25" type="line" smooth="yes"/>
      <point x="57" y="11"/>
      <point x="68" y="0"/>
      <point x="82" y="0" type="curve" smooth="yes"/>
    </contour>
    <contour>
      <point x="227" y="203" type="line"/>
      <point x="342" y="203" type="line" smooth="yes"/>
      <point x="385" y="203"/>
      <point x="407" y="190"/>
      <point x="407" y="156" type="curve" smooth="yes"/>
      <point x="407" y="124"/>
      <point x="382" y="111"/>
      <point x="342" y="111" type="curve" smooth="yes"/>
      <point x="227" y="111" type="line"/>
    </contour>
    <contour>
      <point x="227" y="409" type="line"/>
      <point x="340" y="409" type="line" smooth="yes"/>
      <point x="379" y="409"/>
      <point x="404" y="399"/>
      <point x="404" y="366" type="curve" smooth="yes"/>
      <point x="404" y="333"/>
      <point x="380" y="318"/>
      <point x="340" y="318" type="curve" smooth="yes"/>
      <point x="227" y="318" type="line"/>
    </contour>
  </outline>
</glyph>
<glyph name="ge-cy" format="1">
  <advance width="503"/>
  <unicode hex="0433"/>
  <outline>
    <contour>
      <point x="205" y="0" type="line" smooth="yes"/>
      <point x="220" y="0"/>
      <point x="231" y="11"/>
      <point x="231" y="25" type="curve" smooth="yes"/>
      <point x="231" y="384" type="line"/>
      <point x="464" y="384" type="line" smooth="yes"/>
      <point x="478" y="384"/>
      <point x="489" y="395"/>
      <point x="489" y="409" type="curve" smooth="yes"/>
      <point x="489" y="495" type="line" smooth="yes"/>
      <point x="489" y="509"/>
      <point x="478" y="520"/>
      <point x="464" y="520" type="curve" smooth="yes"/>
      <point x="82" y="520" type="line" smooth="yes"/>
      <point x="68" y="520"/>
      <point x="57" y="509"/>
      <point x="57" y="495" type="curve" smooth="yes"/>
      <point x="58" y="25" type="line" smooth="yes"/>
      <point x="58" y="11"/>
      <point x="69" y="0"/>
      <point x="83" y="0" type="curve" smooth="yes"/>
    </contour>
  </outline>
</glyph>
<glyph name="te-cy" format="1">
  <advance width="552"/>
  <unicode hex="0442"/>
  <outline>
    <contour>
      <point x="337" y="0" type="line" smooth="yes"/>
      <point x="351" y="0"/>
      <point x="362" y="11"/>
      <point x="362" y="25" type="curve" smooth="yes"/>
      <point x="362" y="384" type="line"/>
      <point x="512" y="384" type="line" smooth="yes"/>
      <point x="526" y="384"/>
      <point x="537" y="395"/>
      <point x="537" y="409" type="curve" smooth="yes"/>
      <point x="537" y="495" type="line" smooth="yes"/>
      <point x="537" y="509"/>
      <point x="526" y="520"/>
      <point x="512" y="520" type="curve" smooth="yes"/>
      <point x="39" y="520" type="line"/>
      <point x="25" y="520"/>
      <point x="14" y="509"/>
      <point x="14" y="495" type="curve" smooth="yes"/>
      <point x="14" y="409" type="line" smooth="yes"/>
      <point x="14" y="395"/>
      <point x="25" y="384"/>
      <point x="39" y="384" type="curve" smooth="yes"/>
      <point x="189" y="384" type="line"/>
      <point x="189" y="25" type="line" smooth="yes"/>
      <point x="189" y="11"/>
      <point x="200" y="0"/>
      <point x="214" y="0" type="curve" smooth="yes"/>
    </contour>
  </outline>
</glyph>
<glyph name="tse-cy" format="1">
  <advance width="661"/>
  <unicode hex="0446"/>
  <outline>
    <contour>
      <point x="606" y="-110" type="line" smooth="yes"/>
      <point x="621" y="-110"/>
      <point x="632" y="-99"/>
      <point x="632" y="-85" type="curve" smooth="yes"/>
      <point x="632" y="111" type="line" smooth="yes"/>
      <point x="632" y="125"/>
      <point x="621" y="136"/>
      <point x="606" y="136" type="curve" smooth="yes"/>
      <point x="557" y="136" type="line"/>
      <point x="557" y="495" type="line" smooth="yes"/>
      <point x="557" y="509"/>
      <point x="546" y="520"/>
      <point x="532" y="520" type="curve" smooth="yes"/>
      <point x="413" y="520" type="line" smooth="yes"/>
      <point x="399" y="520"/>
      <point x="388" y="509"/>
      <point x="388" y="495" type="curve" smooth="yes"/>
      <point x="388" y="136" type="line"/>
      <point x="226" y="136" type="line"/>
      <point x="226" y="495" type="line" smooth="yes"/>
      <point x="226" y="509"/>
      <point x="215" y="520"/>
      <point x="201" y="520" type="curve" smooth="yes"/>
      <point x="82" y="520" type="line" smooth="yes"/>
      <point x="68" y="520"/>
      <point x="57" y="509"/>
      <point x="57" y="495" type="curve" smooth="yes"/>
      <point x="57" y="25" type="line" smooth="yes"/>
      <point x="57" y="11"/>
      <point x="68" y="0"/>
      <point x="82" y="0" type="curve" smooth="yes"/>
      <point x="489" y="0" type="line"/>
      <point x="489" y="-85" type="line" smooth="yes"/>
      <point x="489" y="-99"/>
      <point x="500" y="-110"/>
      <point x="515" y="-110" type="curve" smooth="yes"/>
    </contour>
  </outline>
</glyph>
<glyph name="shcha-cy" format="1">
  <advance width="868"/>
  <unicode hex="0449"/>
  <outline>
    <contour>
      <point x="813" y="-110" type="line" smooth="yes"/>
      <point x="827" y="-110"/>
      <point x="838" y="-99"/>
      <point x="838" y="-85" type="curve" smooth="yes"/>
      <point x="838" y="117" type="line" smooth="yes"/>
      <point x="838" y="132"/>
      <point x="827" y="143"/>
      <point x="813" y="143" type="curve" smooth="yes"/>
      <point x="763" y="143" type="line"/>
      <point x="763" y="495" type="line" smooth="yes"/>
      <point x="763" y="509"/>
      <point x="752" y="520"/>
      <point x="737" y="520" type="curve" smooth="yes"/>
      <point x="619" y="520" type="line" smooth="yes"/>
      <point x="605" y="520"/>
      <point x="594" y="509"/>
      <point x="594" y="495" type="curve" smooth="yes"/>
      <point x="594" y="143" type="line"/>
      <point x="488" y="143" type="line"/>
      <point x="488" y="495" type="line" smooth="yes"/>
      <point x="488" y="509"/>
      <point x="477" y="520"/>
      <point x="463" y="520" type="curve" smooth="yes"/>
      <point x="355" y="520" type="line" smooth="yes"/>
      <point x="340" y="520"/>
      <point x="329" y="509"/>
      <point x="329" y="495" type="curve" smooth="yes"/>
      <point x="329" y="143" type="line"/>
      <point x="223" y="143" type="line"/>
      <point x="223" y="495" type="line" smooth="yes"/>
      <point x="223" y="509"/>
      <point x="212" y="520"/>
      <point x="197" y="520" type="curve" smooth="yes"/>
      <point x="82" y="520" type="line" smooth="yes"/>
      <point x="68" y="520"/>
      <point x="57" y="509"/>
      <point x="57" y="495" type="curve" smooth="yes"/>
      <point x="57" y="25" type="line" smooth="yes"/>
      <point x="57" y="11"/>
      <point x="68" y="0"/>
      <point x="82" y="0" type="curve" smooth="yes"/>
      <point x="696" y="0" type="line"/>
      <point x="696" y="-85" type="line" smooth="yes"/>
      <point x="696" y="-99"/>
      <point x="707" y="-110"/>
      <point x="721" y="-110" type="curve" smooth="yes"/>
    </contour>
  </outline>
</glyph>
<glyph name="lje-cy" format="1">
  <advance width="930"/>
  <unicode hex="0459"/>
  <outline>
    <contour>
      <point x="72" y="-10" type="line" smooth="yes"/>
      <point x="203" y="-10"/>
      <point x="284" y="62"/>
      <point x="284" y="197" type="curve" smooth="yes"/>
      <point x="284" y="384" type="line"/>
      <point x="404" y="384" type="line"/>
      <point x="404" y="25" type="line" smooth="yes"/>
      <point x="404" y="11"/>
      <point x="415" y="0"/>
      <point x="429" y="0" type="curve" smooth="yes"/>
      <point x="658" y="0" type="line"/>
      <point x="831" y="0"/>
      <point x="906" y="93"/>
      <point x="906" y="203" type="curve" smooth="yes"/>
      <point x="906" y="324"/>
      <point x="811" y="414"/>
      <point x="663" y="414" type="curve" smooth="yes"/>
      <point x="580" y="414" type="line"/>
      <point x="580" y="495" type="line" smooth="yes"/>
      <point x="580" y="509"/>
      <point x="569" y="520"/>
      <point x="555" y="520" type="curve" smooth="yes"/>
      <point x="138" y="520" type="line" smooth="yes"/>
      <point x="123" y="520"/>
      <point x="112" y="509"/>
      <point x="112" y="495" type="curve" smooth="yes"/>
      <point x="112" y="200" type="line" smooth="yes"/>
      <point x="112" y="159"/>
      <point x="97" y="133"/>
      <point x="54" y="133" type="curve" smooth="yes"/>
      <point x="47" y="133" type="line" smooth="yes"/>
      <point x="33" y="133"/>
      <point x="22" y="122"/>
      <point x="22" y="107" type="curve" smooth="yes"/>
      <point x="22" y="15" type="line" smooth="yes"/>
      <point x="22" y="1"/>
      <point x="33" y="-10"/>
      <point x="47" y="-10" type="curve" smooth="yes"/>
    </contour>
    <contour>
      <point x="577" y="278" type="line"/>
      <point x="661" y="278" type="line" smooth="yes"/>
      <point x="718" y="278"/>
      <point x="742" y="246"/>
      <point x="742" y="206" type="curve" smooth="yes"/>
      <point x="742" y="167"/>
      <point x="720" y="137"/>
      <point x="661" y="137" type="curve" smooth="yes"/>
      <point x="577" y="137" type="line"/>
    </contour>
  </outline>
</glyph>
<glyph name="tshe-cy" format="1">
  <advance width="675"/>
  <unicode hex="045B"/>
  <outline>
    <contour>
      <point x="234" y="0" type="line" smooth="yes"/>
      <point x="248" y="0"/>
      <point x="259" y="11"/>
      <point x="259" y="25" type="curve" smooth="yes"/>
      <point x="259" y="284" type="line" smooth="yes"/>
      <point x="259" y="344"/>
      <point x="296" y="378"/>
      <point x="349" y="378" type="curve" smooth="yes"/>
      <point x="404" y="378"/>
      <point x="437" y="344"/>
      <point x="437" y="284" type="curve" smooth="yes"/>
      <point x="437" y="26" type="line" smooth="yes"/>
      <point x="437" y="12"/>
      <point x="448" y="1"/>
      <point x="462" y="1" type="curve" smooth="yes"/>
      <point x="599" y="1" type="line" smooth="yes"/>
      <point x="613" y="1"/>
      <point x="624" y="12"/>
      <point x="624" y="26" type="curve" smooth="yes"/>
      <point x="624" y="291" type="line" smooth="yes"/>
      <point x="624" y="438"/>
      <point x="533" y="517"/>
      <point x="420" y="517" type="curve" smooth="yes"/>
      <point x="350" y="517"/>
      <point x="295" y="490"/>
      <point x="259" y="449" type="curve"/>
      <point x="259" y="536" type="line"/>
      <point x="326" y="536" type="line" smooth="yes"/>
      <point x="339" y="536"/>
      <point x="349" y="546"/>
      <point x="349" y="559" type="curve" smooth="yes"/>
      <point x="349" y="624" type="line" smooth="yes"/>
      <point x="349" y="637"/>
      <point x="339" y="647"/>
      <point x="326" y="647" type="curve" smooth="yes"/>
      <point x="259" y="647" type="line"/>
      <point x="259" y="685" type="line" smooth="yes"/>
      <point x="259" y="699"/>
      <point x="248" y="710"/>
      <point x="234" y="710" type="curve" smooth="yes"/>
      <point x="105" y="710" type="line" smooth="yes"/>
      <point x="91" y="710"/>
      <point x="80" y="699"/>
      <point x="80" y="685" type="curve" smooth="yes"/>
      <point x="80" y="647" type="line"/>
      <point x="16" y="647" type="line" smooth="yes"/>
      <point x="3" y="647"/>
      <point x="-7" y="637"/>
      <point x="-7" y="624" type="curve" smooth="yes"/>
      <point x="-7" y="559" type="line" smooth="yes"/>
      <point x="-7" y="546"/>
      <point x="3" y="536"/>
      <point x="16" y="536" type="curve" smooth="yes"/>
      <point x="80" y="536" type="line"/>
      <point x="80" y="25" type="line" smooth="yes"/>
      <point x="80" y="11"/>
      <point x="91" y="0"/>
      <point x="105" y="0" type="curve" smooth="yes"/>
    </contour>
  </outline>
</glyph>
<glyph name="endash" format="1">
  <advance width="566"/>
  <unicode hex="2013"/>
  <outline>
    <contour>
      <point x="485" y="225" type="line" smooth="yes"/>
      <point x="500" y="225"/>
      <point x="511" y="236"/>
      <point x="511" y="250" type="curve" smooth="yes"/>
      <point x="511" y="350" type="line" smooth="yes"/>
      <point x="511" y="364"/>
      <point x="500" y="375"/>
      <point x="485" y="375" type="curve" smooth="yes"/>
      <point x="80" y="375" type="line" smooth="yes"/>
      <point x="66" y="375"/>
      <point x="55" y="364"/>
      <point x="55" y="350" type="curve" smooth="yes"/>
      <point x="55" y="250" type="line" smooth="yes"/>
      <point x="55" y="236"/>
      <point x="66" y="225"/>
      <point x="80" y="225" type="curve" smooth="yes"/>
    </contour>
  </outline>
</glyph>
<glyph name="emdash" format="1">
  <advance width="756"/>
  <unicode hex="2014"/>
  <outline>
    <contour>
      <point x="675" y="225" type="line" smooth="yes"/>
      <point x="690" y="225"/>
      <point x="701" y="236"/>
      <point x="701" y="250" type="curve" smooth="yes"/>
      <point x="701" y="350" type="line" smooth="yes"/>
      <point x="701" y="364"/>
      <point x="690" y="375"/>
      <point x="675" y="375" type="curve" smooth="yes"/>
      <point x="80" y="375" type="line" smooth="yes"/>
      <point x="66" y="375"/>
      <point x="55" y="364"/>
      <point x="55" y="350" type="curve" smooth="yes"/>
      <point x="55" y="250" type="line" smooth="yes"/>
      <point x="55" y="236"/>
      <point x="66" y="225"/>
      <point x="80" y="225" type="curve" smooth="yes"/>
    </contour>
  </outline>
</glyph>
<glyph name="guilsinglright" format="1">
  <advance width="346"/>
  <unicode hex="203A"/>
  <outline>
    <contour>
      <point x="80" y="65"/>
      <point x="87" y="67"/>
      <point x="94" y="73" type="curve" smooth="yes"/>
      <point x="301" y="274" type="line" smooth="yes"/>
      <point x="311" y="283"/>
      <point x="316" y="293"/>
      <point x="316" y="304" type="curve" smooth="yes"/>
      <point x="316" y="354" type="line" smooth="yes"/>
      <point x="316" y="365"/>
      <point x="311" y="375"/>
      <point x="301" y="384" type="curve" smooth="yes"/>
      <point x="94" y="585" type="line" smooth="yes"/>
      <point x="87" y="591"/>
      <point x="80" y="593"/>
      <point x="76" y="593" type="curve" smooth="yes"/>
      <point x="64" y="593"/>
      <point x="55" y="583"/>
      <point x="55" y="571" type="curve" smooth="yes"/>
      <point x="55" y="472" type="line" smooth="yes"/>
      <point x="55" y="451"/>
      <point x="60" y="443"/>
      <point x="73" y="430" type="curve" smooth="yes"/>
      <point x="175" y="329" type="line"/>
      <point x="73" y="228" type="line" smooth="yes"/>
      <point x="60" y="215"/>
      <point x="55" y="207"/>
      <point x="55" y="186" type="curve" smooth="yes"/>
      <point x="55" y="87" type="line" smooth="yes"/>
      <point x="55" y="75"/>
      <point x="64" y="65"/>
      <point x="76" y="65" type="curve" smooth="yes"/>
    </contour>
  </outline>
</glyph>
<glyph name="fourinferior" format="1">
  <advance width="376"/>
  <unicode hex="2084"/>
  <outline>
    <contour>
      <point x="276" y="-170" type="line" smooth="yes"/>
      <point x="289" y="-170"/>
      <point x="298" y="-161"/>
      <point x="298" y="-148" type="curve" smooth="yes"/>
      <point x="298" y="-114" type="line"/>
      <point x="333" y="-114" type="line" smooth="yes"/>
      <point x="346" y="-114"/>
      <point x="355" y="-105"/>
      <point x="355" y="-92" type="curve" smooth="yes"/>
      <point x="355" y="-44" type="line" smooth="yes"/>
      <point x="355" y="-31"/>
      <point x="346" y="-22"/>
      <point x="333" y="-22" type="curve" smooth="yes"/>
      <point x="298" y="-22" type="line"/>
      <point x="298" y="158" type="line" smooth="yes"/>
      <point x="298" y="171"/>
      <point x="289" y="180"/>
      <point x="276" y="180" type="curve" smooth="yes"/>
      <point x="193" y="180" type="line" smooth="yes"/>
      <point x="184" y="180"/>
      <point x="173" y="176"/>
      <point x="163" y="162" type="curve" smooth="yes"/>
      <point x="32" y="-13" type="line" smooth="yes"/>
      <point x="20" y="-29"/>
      <point x="20" y="-40"/>
      <point x="20" y="-43" type="curve" smooth="yes"/>
      <point x="20" y="-92" type="line" smooth="yes"/>
      <point x="20" y="-105"/>
      <point x="29" y="-114"/>
      <point x="42" y="-114" type="curve" smooth="yes"/>
      <point x="192" y="-114" type="line"/>
      <point x="192" y="-148" type="line" smooth="yes"/>
      <point x="192" y="-161"/>
      <point x="201" y="-170"/>
      <point x="214" y="-170" type="curve" smooth="yes"/>
    </contour>
    <contour>
      <point x="194" y="68" type="line"/>
      <point x="194" y="-25" type="line"/>
      <point x="128" y="-25" type="line"/>
    </contour>
  </outline>
</glyph>
<glyph name="seveninferior" format="1">
  <advance width="314"/>
  <unicode hex="2087"/>
  <outline>
    <contour>
      <point x="158" y="-170" type="line" smooth="yes"/>
      <point x="172" y="-170"/>
      <point x="178" y="-158"/>
      <point x="184" y="-146" type="curve" smooth="yes"/>
      <point x="289" y="88" type="line" smooth="yes"/>
      <point x="292" y="96"/>
      <point x="296" y="105"/>
      <point x="296" y="115" type="curve" smooth="yes"/>
      <point x="296" y="158" type="line" smooth="yes"/>
      <point x="296" y="171"/>
      <point x="287" y="180"/>
      <point x="274" y="180" type="curve" smooth="yes"/>
      <point x="41" y="180" type="line" smooth="yes"/>
      <point x="28" y="180"/>
      <point x="19" y="171"/>
      <point x="19" y="158" type="curve" smooth="yes"/>
      <point x="19" y="108" type="line" smooth="yes"/>
      <point x="19" y="95"/>
      <point x="27" y="86"/>
      <point x="40" y="86" type="curve" smooth="yes"/>
      <point x="174" y="86" type="line"/>
      <point x="75" y="-134" type="line" smooth="yes"/>
      <point x="73" y="-138"/>
      <point x="71" y="-146"/>
      <point x="71" y="-149" type="curve" smooth="yes"/>
      <point x="71" y="-161"/>
      <point x="78" y="-170"/>
      <point x="91" y="-170" type="curve" smooth="yes"/>
    </contour>
  </outline>
</glyph>
<glyph name="parenleftinferior" format="1">
  <advance width="248"/>
  <unicode hex="208D"/>
  <outline>
    <contour>
      <point x="213" y="-225"/>
      <point x="222" y="-218"/>
      <point x="222" y="-203" type="curve" smooth="yes"/>
      <point x="222" y="-154" type="line" smooth="yes"/>
      <point x="222" y="-139"/>
      <point x="210" y="-134"/>
      <point x="195" y="-132" type="curve" smooth="yes"/>
      <point x="149" y="-125"/>
      <point x="128" y="-78"/>
      <point x="128" y="10" type="curve" smooth="yes"/>
      <point x="128" y="98"/>
      <point x="149" y="145"/>
      <point x="195" y="152" type="curve" smooth="yes"/>
      <point x="210" y="154"/>
      <point x="222" y="159"/>
      <point x="222" y="174" type="curve" smooth="yes"/>
      <point x="222" y="223" type="line" smooth="yes"/>
      <point x="222" y="238"/>
      <point x="213" y="245"/>
      <point x="198" y="245" type="curve" smooth="yes"/>
      <point x="121" y="245"/>
      <point x="29" y="193"/>
      <point x="29" y="10" type="curve" smooth="yes"/>
      <point x="29" y="-172"/>
      <point x="121" y="-225"/>
      <point x="198" y="-225" type="curve" smooth="yes"/>
    </contour>
  </outline>
</glyph>
<glyph name="parenrightinferior" format="1">
  <advance width="248"/>
  <unicode hex="208E"/>
  <outline>
    <contour>
      <point x="127" y="-225"/>
      <point x="219" y="-172"/>
      <point x="219" y="10" type="curve" smooth="yes"/>
      <point x="219" y="193"/>
      <point x="127" y="245"/>
      <point x="50" y="245" type="curve" smooth="yes"/>
      <point x="35" y="245"/>
      <point x="26" y="238"/>
      <point x="26" y="223" type="curve" smooth="yes"/>
      <point x="26" y="174" type="line" smooth="yes"/>
      <point x="26" y="159"/>
      <point x="38" y="154"/>
      <point x="53" y="152" type="curve" smooth="yes"/>
      <point x="99" y="145"/>
      <point x="120" y="98"/>
      <point x="120" y="10" type="curve" smooth="yes"/>
      <point x="120" y="-78"/>
      <point x="99" y="-125"/>
      <point x="53" y="-132" type="curve" smooth="yes"/>
      <point x="38" y="-134"/>
      <point x="26" y="-139"/>
      <point x="26" y="-154" type="curve" smooth="yes"/>
      <point x="26" y="-203" type="line" smooth="yes"/>
      <point x="26" y="-218"/>
      <point x="35" y="-225"/>
      <point x="50" y="-225" type="curve" smooth="yes"/>
    </contour>
  </outline>
</glyph>
<glyph name="greaterequal" format="1">
  <advance width="546"/>
  <unicode hex="2265"/>
  <outline>
    <contour>
      <point x="89" y="194"/>
      <point x="95" y="196"/>
      <point x="101" y="199" type="curve" smooth="yes"/>
      <point x="466" y="368" type="line" smooth="yes"/>
      <point x="486" y="378"/>
      <point x="495" y="389"/>
      <point x="495" y="409" type="curve" smooth="yes"/>
      <point x="495" y="444" type="line"/>
      <point x="495" y="464"/>
      <point x="486" y="476"/>
      <point x="466" y="486" type="curve" smooth="yes"/>
      <point x="101" y="654" type="line" smooth="yes"/>
      <point x="95" y="657"/>
      <point x="89" y="659"/>
      <point x="85" y="659" type="curve" smooth="yes"/>
      <point x="73" y="659"/>
      <point x="64" y="651"/>
      <point x="64" y="639" type="curve" smooth="yes"/>
      <point x="64" y="553" type="line" smooth="yes"/>
      <point x="64" y="530"/>
      <point x="78" y="518"/>
      <point x="92" y="513" type="curve" smooth="yes"/>
      <point x="305" y="427" type="line"/>
      <point x="92" y="340" type="line" smooth="yes"/>
      <point x="78" y="334"/>
      <point x="64" y="323"/>
      <point x="64" y="301" type="curve" smooth="yes"/>
      <point x="64" y="215" type="line" smooth="yes"/>
      <point x="64" y="202"/>
      <point x="73" y="194"/>
      <point x="85" y="194" type="curve" smooth="yes"/>
    </contour>
    <contour>
      <point x="470" y="0" type="line" smooth="yes"/>
      <point x="484" y="0"/>
      <point x="495" y="11"/>
      <point x="495" y="25" type="curve" smooth="yes"/>
      <point x="495" y="103" type="line" smooth="yes"/>
      <point x="495" y="117"/>
      <point x="484" y="128"/>
      <point x="470" y="128" type="curve" smooth="yes"/>
      <point x="89" y="128" type="line"/>
      <point x="75" y="128"/>
      <point x="64" y="117"/>
      <point x="64" y="103" type="curve" smooth="yes"/>
      <point x="64" y="25" type="line" smooth="yes"/>
      <point x="64" y="11"/>
      <point x="75" y="0"/>
      <point x="89" y="0" type="curve" smooth="yes"/>
    </contour>
  </outline>
</glyph>
<glyph name="Caron" format="1">
  <advance width="503"/>
  <unicode hex="F6CA"/>
  <outline>
    <contour>
      <point x="297" y="750" type="line" smooth="yes"/>
      <point x="311" y="750"/>
      <point x="319" y="753"/>
      <point x="333" y="767" type="curve" smooth="yes"/>
      <point x="436" y="877" type="line" smooth="yes"/>
      <point x="441" y="882"/>
      <point x="444" y="887"/>
      <point x="444" y="892" type="curve" smooth="yes"/>
      <point x="444" y="902"/>
      <point x="438" y="907"/>
      <point x="428" y="907" type="curve" smooth="yes"/>
      <point x="375" y="907" type="line" smooth="yes"/>
      <point x="364" y="907"/>
      <point x="351" y="906"/>
      <point x="340" y="900" type="curve" smooth="yes"/>
      <point x="252" y="852" type="line"/>
      <point x="164" y="900" type="line" smooth="yes"/>
      <point x="153" y="906"/>
      <point x="141" y="907"/>
      <point x="129" y="907" type="curve" smooth="yes"/>
      <point x="76" y="907" type="line" smooth="yes"/>
      <point x="66" y="907"/>
      <point x="61" y="902"/>
      <point x="61" y="892" type="curve" smooth="yes"/>
      <point x="61" y="887"/>
      <point x="64" y="882"/>
      <point x="68" y="877" type="curve" smooth="yes"/>
      <point x="172" y="767" type="line" smooth="yes"/>
      <point x="185" y="753"/>
      <point x="194" y="750"/>
      <point x="207" y="750" type="curve" smooth="yes"/>
    </contour>
  </outline>
</glyph>
<glyph name="fl" format="1">
  <advance width="716"/>
  <unicode hex="FB02"/>
  <outline>
    <contour>
      <point x="265" y="0" type="line" smooth="yes"/>
      <point x="279" y="0"/>
      <point x="290" y="11"/>
      <point x="290" y="25" type="curve" smooth="yes"/>
      <point x="290" y="384" type="line"/>
      <point x="486" y="384" type="line"/>
      <point x="486" y="25" type="line" smooth="yes"/>
      <point x="486" y="11"/>
      <point x="497" y="0"/>
      <point x="511" y="0" type="curve" smooth="yes"/>
      <point x="633" y="0" type="line" smooth="yes"/>
      <point x="648" y="0"/>
      <point x="659" y="11"/>
      <point x="659" y="25" type="curve" smooth="yes"/>
      <point x="659" y="715" type="line" smooth="yes"/>
      <point x="659" y="729"/>
      <point x="648" y="740"/>
      <point x="633" y="740" type="curve" smooth="yes"/>
      <point x="511" y="740" type="line" smooth="yes"/>
      <point x="497" y="740"/>
      <point x="486" y="729"/>
      <point x="486" y="715" type="curve" smooth="yes"/>
      <point x="486" y="520" type="line"/>
      <point x="290" y="520" type="line"/>
      <point x="290" y="545" type="line" smooth="yes"/>
      <point x="290" y="583"/>
      <point x="305" y="604"/>
      <point x="349" y="604" type="curve" smooth="yes"/>
      <point x="407" y="604" type="line" smooth="yes"/>
      <point x="421" y="604"/>
      <point x="432" y="615"/>
      <point x="432" y="629" type="curve" smooth="yes"/>
      <point x="432" y="715" type="line" smooth="yes"/>
      <point x="432" y="729"/>
      <point x="421" y="740"/>
      <point x="407" y="740" type="curve" smooth="yes"/>
      <point x="341" y="740" type="line" smooth="yes"/>
      <point x="203" y="740"/>
      <point x="117" y="689"/>
      <point x="117" y="550" type="curve" smooth="yes"/>
      <point x="117" y="520" type="line"/>
      <point x="41" y="520" type="line" smooth="yes"/>
      <point x="27" y="520"/>
      <point x="16" y="509"/>
      <point x="16" y="495" type="curve" smooth="yes"/>
      <point x="16" y="409" type="line" smooth="yes"/>
      <point x="16" y="395"/>
      <point x="27" y="384"/>
      <point x="41" y="384" type="curve" smooth="yes"/>
      <point x="117" y="384" type="line"/>
      <point x="117" y="25" type="line" smooth="yes"/>
      <point x="117" y="11"/>
      <point x="128" y="0"/>
      <point x="142" y="0" type="curve" smooth="yes"/>
    </contour>
  </outline>
</glyph>
<glyph name="Cedilla" format="1">
  <advance width="295"/>
  <outline>
    <contour>
      <point x="201" y="-220"/>
      <point x="238" y="-182"/>
      <point x="238" y="-131" type="curve" smooth="yes"/>
      <point x="238" y="-79"/>
      <point x="207" y="-43"/>
      <point x="158" y="-43" type="curve" smooth="yes"/>
      <point x="151" y="-43"/>
      <point x="134" y="-46"/>
      <point x="126" y="-49" type="curve"/>
      <point x="164" y="27" type="line"/>
      <point x="100" y="27" type="line"/>
      <point x="65" y="-52" type="line" smooth="yes"/>
      <point x="58" y="-68"/>
      <point x="57" y="-76"/>
      <point x="65" y="-84" type="curve" smooth="yes"/>
      <point x="84" y="-104" type="line" smooth="yes"/>
      <point x="98" y="-118"/>
      <point x="118" y="-103"/>
      <point x="140" y="-103" type="curve" smooth="yes"/>
      <point x="161" y="-103"/>
      <point x="173" y="-115"/>
      <point x="173" y="-131" type="curve" smooth="yes"/>
      <point x="173" y="-148"/>
      <point x="161" y="-161"/>
      <point x="140" y="-161" type="curve" smooth="yes"/>
      <point x="103" y="-161"/>
      <point x="97" y="-137"/>
      <point x="80" y="-153" type="curve" smooth="yes"/>
      <point x="62" y="-169" type="line" smooth="yes"/>
      <point x="41" y="-187"/>
      <point x="86" y="-220"/>
      <point x="140" y="-220" type="curve" smooth="yes"/>
    </contour>
  </outline>
</glyph>
<glyph name="Ogonek" format="1">
  <advance width="306"/>
  <outline>
    <contour>
      <point x="224" y="-220" type="line" smooth="yes"/>
      <point x="239" y="-220"/>
      <point x="250" y="-209"/>
      <point x="250" y="-195" type="curve" smooth="yes"/>
      <point x="250" y="-145" type="line" smooth="yes"/>
      <point x="250" y="-131"/>
      <point x="239" y="-120"/>
      <point x="224" y="-120" type="curve" smooth="yes"/>
      <point x="213" y="-120" type="line" smooth="yes"/>
      <point x="172" y="-120"/>
      <point x="154" y="-91"/>
      <point x="154" y="-60" type="curve" smooth="yes"/>
      <point x="154" y="-29"/>
      <point x="172" y="0"/>
      <point x="213" y="0" type="curve" smooth="yes"/>
      <point x="224" y="0" type="line" smooth="yes"/>
      <point x="239" y="0"/>
      <point x="250" y="11"/>
      <point x="250" y="25" type="curve" smooth="yes"/>
      <point x="250" y="75" type="line" smooth="yes"/>
      <point x="250" y="89"/>
      <point x="239" y="100"/>
      <point x="224" y="100" type="curve" smooth="yes"/>
      <point x="209" y="100" type="line" smooth="yes"/>
      <point x="101" y="100"/>
      <point x="50" y="32"/>
      <point x="50" y="-60" type="curve" smooth="yes"/>
      <point x="50" y="-152"/>
      <point x="101" y="-220"/>
      <point x="209" y="-220" type="curve" smooth="yes"/>
    </contour>
  </outline>
</glyph>
<glyph name="at.cap" format="1">
  <advance width="842"/>
  <outline>
    <contour>
      <point x="599" y="-64"/>
      <point x="696" y="-4"/>
      <point x="753" y="62" type="curve" smooth="yes"/>
      <point x="756" y="67"/>
      <point x="759" y="71"/>
      <point x="759" y="77" type="curve" smooth="yes"/>
      <point x="760" y="92"/>
      <point x="748" y="102"/>
      <point x="734" y="102" type="curve" smooth="yes"/>
      <point x="660" y="102" type="line" smooth="yes"/>
      <point x="647" y="102"/>
      <point x="640" y="96"/>
      <point x="629" y="88" type="curve" smooth="yes"/>
      <point x="592" y="61"/>
      <point x="553" y="36"/>
      <point x="430" y="36" type="curve" smooth="yes"/>
      <point x="253" y="36"/>
      <point x="168" y="119"/>
      <point x="153" y="259" type="curve" smooth="yes"/>
      <point x="149" y="296"/>
      <point x="149" y="385"/>
      <point x="153" y="420" type="curve" smooth="yes"/>
      <point x="168" y="553"/>
      <point x="246" y="644"/>
      <point x="417" y="644" type="curve" smooth="yes"/>
      <point x="620" y="644"/>
      <point x="690" y="572"/>
      <point x="698" y="420" type="curve" smooth="yes"/>
      <point x="701" y="379"/>
      <point x="699" y="340"/>
      <point x="699" y="311" type="curve" smooth="yes"/>
      <point x="699" y="281"/>
      <point x="688" y="247"/>
      <point x="648" y="247" type="curve" smooth="yes"/>
      <point x="616" y="247"/>
      <point x="596" y="269"/>
      <point x="596" y="311" type="curve" smooth="yes"/>
      <point x="596" y="513" type="line" smooth="yes"/>
      <point x="596" y="527"/>
      <point x="585" y="538"/>
      <point x="571" y="538" type="curve" smooth="yes"/>
      <point x="517" y="538" type="line" smooth="yes"/>
      <point x="503" y="538"/>
      <point x="492" y="527"/>
      <point x="492" y="513" type="curve" smooth="yes"/>
      <point x="492" y="500" type="line"/>
      <point x="471" y="527"/>
      <point x="443" y="546"/>
      <point x="391" y="546" type="curve" smooth="yes"/>
      <point x="293" y="546"/>
      <point x="235" y="466"/>
      <point x="235" y="341" type="curve" smooth="yes"/>
      <point x="235" y="216"/>
      <point x="295" y="137"/>
      <point x="395" y="137" type="curve" smooth="yes"/>
      <point x="483" y="137"/>
      <point x="510" y="172"/>
      <point x="524" y="197" type="curve"/>
      <point x="540" y="178"/>
      <point x="581" y="147"/>
      <point x="648" y="147" type="curve" smooth="yes"/>
      <point x="725" y="147"/>
      <point x="796" y="200"/>
      <point x="802" y="299" type="curve" smooth="yes"/>
      <point x="804" y="328"/>
      <point x="805" y="384"/>
      <point x="802" y="425" type="curve" smooth="yes"/>
      <point x="789" y="607"/>
      <point x="695" y="744"/>
      <point x="417" y="744" type="curve" smooth="yes"/>
      <point x="182" y="744"/>
      <point x="64" y="592"/>
      <point x="48" y="425" type="curve" smooth="yes"/>
      <point x="45" y="390"/>
      <point x="45" y="291"/>
      <point x="48" y="254" type="curve" smooth="yes"/>
      <point x="65" y="70"/>
      <point x="182" y="-64"/>
      <point x="430" y="-64" type="curve" smooth="yes"/>
    </contour>
    <contour>
      <point x="366" y="237"/>
      <point x="339" y="273"/>
      <point x="339" y="341" type="curve" smooth="yes"/>
      <point x="339" y="413"/>
      <point x="366" y="446"/>
      <point x="415" y="446" type="curve" smooth="yes"/>
      <point x="468" y="446"/>
      <point x="492" y="413"/>
      <point x="492" y="341" type="curve" smooth="yes"/>
      <point x="492" y="269"/>
      <point x="468" y="237"/>
      <point x="415" y="237" type="curve" smooth="yes"/>
    </contour>
  </outline>
</glyph>
<glyph name="f_f" format="1">
  <advance width="817"/>
  <outline>
    <contour>
      <point x="265" y="0" type="line"/>
      <point x="279" y="0"/>
      <point x="290" y="11"/>
      <point x="290" y="25" type="curve"/>
      <point x="290" y="384" type="line"/>
      <point x="486" y="384" type="line"/>
      <point x="486" y="25" type="line"/>
      <point x="486" y="11"/>
      <point x="497" y="0"/>
      <point x="511" y="0" type="curve"/>
      <point x="633" y="0" type="line"/>
      <point x="648" y="0"/>
      <point x="659" y="11"/>
      <point x="659" y="25" type="curve"/>
      <point x="659" y="384" type="line"/>
      <point x="779" y="384" type="line"/>
      <point x="793" y="384"/>
      <point x="804" y="395"/>
      <point x="804" y="409" type="curve"/>
      <point x="804" y="495" type="line"/>
      <point x="804" y="509"/>
      <point x="793" y="520"/>
      <point x="779" y="520" type="curve"/>
      <point x="659" y="520" type="line"/>
      <point x="659" y="545" type="line"/>
      <point x="659" y="583"/>
      <point x="674" y="604"/>
      <point x="717" y="604" type="curve"/>
      <point x="789" y="604" type="line"/>
      <point x="803" y="604"/>
      <point x="814" y="615"/>
      <point x="814" y="629" type="curve"/>
      <point x="814" y="715" type="line"/>
      <point x="814" y="729"/>
      <point x="803" y="740"/>
      <point x="789" y="740" type="curve"/>
      <point x="709" y="740" type="line"/>
      <point x="572" y="740"/>
      <point x="486" y="689"/>
      <point x="486" y="550" type="curve"/>
      <point x="486" y="520" type="line"/>
      <point x="290" y="520" type="line"/>
      <point x="290" y="545" type="line"/>
      <point x="290" y="583"/>
      <point x="305" y="604"/>
      <point x="349" y="604" type="curve"/>
      <point x="420" y="604" type="line"/>
      <point x="434" y="604"/>
      <point x="445" y="615"/>
      <point x="445" y="629" type="curve"/>
      <point x="445" y="715" type="line"/>
      <point x="445" y="729"/>
      <point x="434" y="740"/>
      <point x="420" y="740" type="curve"/>
      <point x="341" y="740" type="line"/>
      <point x="203" y="740"/>
      <point x="117" y="689"/>
      <point x="117" y="550" type="curve"/>
      <point x="117" y="520" type="line"/>
      <point x="41" y="520" type="line"/>
      <point x="27" y="520"/>
      <point x="16" y="509"/>
      <point x="16" y="495" type="curve"/>
      <point x="16" y="409" type="line"/>
      <point x="16" y="395"/>
      <point x="27" y="384"/>
      <point x="41" y="384" type="curve"/>
      <point x="117" y="384" type="line"/>
      <point x="117" y="25" type="line"/>
      <point x="117" y="11"/>
      <point x="128" y="0"/>
      <point x="142" y="0" type="curve"/>
    </contour>
  </outline>
</glyph>
<glyph name="notequal.cap" format="1">
  <advance width="559"/>
  <outline>
    <contour>
      <point x="197" y="71" type="line" smooth="yes"/>
      <point x="220" y="71"/>
      <point x="230" y="86"/>
      <point x="234" y="96" type="curve" smooth="yes"/>
      <point x="260" y="159" type="line"/>
      <point x="476" y="159" type="line" smooth="yes"/>
      <point x="491" y="159"/>
      <point x="502" y="170"/>
      <point x="502" y="184" type="curve" smooth="yes"/>
      <point x="502" y="266" type="line" smooth="yes"/>
      <point x="502" y="280"/>
      <point x="491" y="291"/>
      <point x="476" y="291" type="curve" smooth="yes"/>
      <point x="316" y="291" type="line"/>
      <point x="365" y="409" type="line"/>
      <point x="476" y="409" type="line" smooth="yes"/>
      <point x="491" y="409"/>
      <point x="502" y="420"/>
      <point x="502" y="434" type="curve" smooth="yes"/>
      <point x="502" y="516" type="line" smooth="yes"/>
      <point x="502" y="530"/>
      <point x="491" y="541"/>
      <point x="476" y="541" type="curve" smooth="yes"/>
      <point x="420" y="541" type="line"/>
      <point x="445" y="599" type="line" smooth="yes"/>
      <point x="447" y="604"/>
      <point x="447" y="607"/>
      <point x="447" y="609" type="curve" smooth="yes"/>
      <point x="447" y="620"/>
      <point x="437" y="630"/>
      <point x="426" y="630" type="curve" smooth="yes"/>
      <point x="357" y="630" type="line" smooth="yes"/>
      <point x="336" y="630"/>
      <point x="325" y="616"/>
      <point x="321" y="605" type="curve" smooth="yes"/>
      <point x="294" y="541" type="line"/>
      <point x="81" y="541" type="line" smooth="yes"/>
      <point x="67" y="541"/>
      <point x="56" y="530"/>
      <point x="56" y="516" type="curve" smooth="yes"/>
      <point x="56" y="434" type="line" smooth="yes"/>
      <point x="56" y="420"/>
      <point x="67" y="409"/>
      <point x="81" y="409" type="curve" smooth="yes"/>
      <point x="239" y="409" type="line"/>
      <point x="190" y="291" type="line"/>
      <point x="81" y="291" type="line" smooth="yes"/>
      <point x="67" y="291"/>
      <point x="56" y="280"/>
      <point x="56" y="266" type="curve" smooth="yes"/>
      <point x="56" y="184" type="line" smooth="yes"/>
      <point x="56" y="170"/>
      <point x="67" y="159"/>
      <point x="81" y="159" type="curve" smooth="yes"/>
      <point x="135" y="159" type="line"/>
      <point x="112" y="102" type="line" smooth="yes"/>
      <point x="110" y="97"/>
      <point x="110" y="94"/>
      <point x="110" y="92" type="curve" smooth="yes"/>
      <point x="110" y="81"/>
      <point x="119" y="71"/>
      <point x="131" y="71" type="curve" smooth="yes"/>
    </contour>
  </outline>
</glyph>
<glyph name="one.otlf" format="1">
  <advance width="667"/>
  <outline>
    <contour>
      <point x="595" y="0" type="line"/>
      <point x="610" y="0"/>
      <point x="621" y="11"/>
      <point x="621" y="25" type="curve"/>
      <point x="621" y="132" type="line"/>
      <point x="621" y="146"/>
      <point x="610" y="157"/>
      <point x="595" y="157" type="curve"/>
      <point x="455" y="157" type="line"/>
      <point x="455" y="675" type="line"/>
      <point x="455" y="689"/>
      <point x="444" y="700"/>
      <point x="430" y="700" type="curve"/>
      <point x="297" y="700" type="line"/>
      <point x="288" y="700"/>
      <point x="282" y="698"/>
      <point x="274" y="693" type="curve"/>
      <point x="70" y="536" type="line"/>
      <point x="57" y="528"/>
      <point x="55" y="512"/>
      <point x="62" y="500" type="curve"/>
      <point x="125" y="419" type="line"/>
      <point x="134" y="407"/>
      <point x="148" y="403"/>
      <point x="160" y="413" type="curve"/>
      <point x="267" y="493" type="line"/>
      <point x="267" y="157" type="line"/>
      <point x="97" y="157" type="line"/>
      <point x="83" y="157"/>
      <point x="72" y="146"/>
      <point x="72" y="132" type="curve"/>
      <point x="72" y="25" type="line"/>
      <point x="72" y="11"/>
      <point x="83" y="0"/>
      <point x="97" y="0" type="curve"/>
    </contour>
  </outline>
</glyph>
<glyph name="parenright.cap" format="1">
  <advance width="410"/>
  <outline>
    <contour>
      <point x="247" y="-117"/>
      <point x="362" y="17"/>
      <point x="362" y="351" type="curve" smooth="yes"/>
      <point x="362" y="685"/>
      <point x="247" y="818"/>
      <point x="62" y="818" type="curve" smooth="yes"/>
      <point x="48" y="818"/>
      <point x="37" y="807"/>
      <point x="37" y="793" type="curve" smooth="yes"/>
      <point x="37" y="703" type="line" smooth="yes"/>
      <point x="37" y="689"/>
      <point x="48" y="679"/>
      <point x="61" y="678" type="curve" smooth="yes"/>
      <point x="171" y="671"/>
      <point x="201" y="553"/>
      <point x="201" y="351" type="curve" smooth="yes"/>
      <point x="201" y="149"/>
      <point x="171" y="30"/>
      <point x="61" y="23" type="curve" smooth="yes"/>
      <point x="48" y="22"/>
      <point x="37" y="12"/>
      <point x="37" y="-2" type="curve" smooth="yes"/>
      <point x="37" y="-92" type="line" smooth="yes"/>
      <point x="37" y="-106"/>
      <point x="48" y="-117"/>
      <point x="62" y="-117" type="curve" smooth="yes"/>
    </contour>
  </outline>
</glyph>
<glyph name="parenright.otlf" format="1">
  <advance width="667"/>
  <outline>
    <contour>
      <point x="376" y="-117"/>
      <point x="491" y="17"/>
      <point x="491" y="351" type="curve" smooth="yes"/>
      <point x="491" y="685"/>
      <point x="376" y="818"/>
      <point x="191" y="818" type="curve" smooth="yes"/>
      <point x="177" y="818"/>
      <point x="166" y="807"/>
      <point x="166" y="793" type="curve" smooth="yes"/>
      <point x="166" y="703" type="line" smooth="yes"/>
      <point x="166" y="689"/>
      <point x="177" y="679"/>
      <point x="190" y="678" type="curve" smooth="yes"/>
      <point x="300" y="671"/>
      <point x="330" y="553"/>
      <point x="330" y="351" type="curve" smooth="yes"/>
      <point x="330" y="149"/>
      <point x="300" y="30"/>
      <point x="190" y="23" type="curve" smooth="yes"/>
      <point x="177" y="22"/>
      <point x="166" y="12"/>
      <point x="166" y="-2" type="curve" smooth="yes"/>
      <point x="166" y="-92" type="line" smooth="yes"/>
      <point x="166" y="-106"/>
      <point x="177" y="-117"/>
      <point x="191" y="-117" type="curve" smooth="yes"/>
    </contour>
  </outline>
</glyph>
